<svg version="1.1" xmlns="http://www.w3.org/2000/svg" viewBox="0 0 353 146" width="353" height="146">
  <!-- svg-source:excalidraw -->
  
  <defs>
    <style class="style-fonts">
      @font-face {
        font-family: "Virgil";
        src: url("https://excalidraw.com/Virgil.woff2");
      }
      @font-face {
        font-family: "Cascadia";
        src: url("https://excalidraw.com/Cascadia.woff2");
      }
    </style>
  </defs>
  <rect x="0" y="0" width="353" height="146" fill="#ffffff"></rect><g stroke-linecap="round" transform="translate(10 10) rotate(0 166.5 63)"><path d="M333 63 C333 64.83, 332.79 66.67, 332.37 68.49 C331.94 70.31, 331.31 72.14, 330.47 73.94 C329.63 75.74, 328.58 77.54, 327.33 79.31 C326.07 81.07, 324.61 82.83, 322.96 84.55 C321.3 86.27, 319.44 87.97, 317.4 89.62 C315.36 91.28, 313.11 92.91, 310.69 94.5 C308.27 96.09, 305.66 97.64, 302.89 99.14 C300.11 100.63, 297.16 102.09, 294.05 103.5 C290.94 104.9, 287.65 106.25, 284.23 107.55 C280.81 108.84, 277.23 110.08, 273.52 111.26 C269.82 112.44, 265.96 113.56, 262 114.61 C258.04 115.66, 253.94 116.64, 249.75 117.56 C245.56 118.47, 241.25 119.32, 236.87 120.1 C232.48 120.87, 227.99 121.57, 223.45 122.2 C218.9 122.83, 214.27 123.38, 209.59 123.85 C204.92 124.33, 200.18 124.73, 195.41 125.04 C190.65 125.36, 185.83 125.6, 181.01 125.76 C176.19 125.92, 171.34 126, 166.5 126 C161.66 126, 156.81 125.92, 151.99 125.76 C147.17 125.6, 142.35 125.36, 137.59 125.04 C132.82 124.73, 128.08 124.33, 123.41 123.85 C118.73 123.38, 114.1 122.83, 109.55 122.2 C105.01 121.57, 100.52 120.87, 96.13 120.1 C91.75 119.32, 87.44 118.47, 83.25 117.56 C79.06 116.64, 74.96 115.66, 71 114.61 C67.04 113.56, 63.18 112.44, 59.48 111.26 C55.77 110.08, 52.19 108.84, 48.77 107.55 C45.35 106.25, 42.06 104.9, 38.95 103.5 C35.84 102.09, 32.89 100.63, 30.11 99.14 C27.34 97.64, 24.73 96.09, 22.31 94.5 C19.89 92.91, 17.64 91.28, 15.6 89.62 C13.56 87.97, 11.7 86.27, 10.04 84.55 C8.39 82.83, 6.93 81.07, 5.67 79.31 C4.42 77.54, 3.37 75.74, 2.53 73.94 C1.69 72.14, 1.06 70.31, 0.63 68.49 C0.21 66.67, 0 64.83, 0 63 C0 61.17, 0.21 59.33, 0.63 57.51 C1.06 55.69, 1.69 53.86, 2.53 52.06 C3.37 50.26, 4.42 48.46, 5.67 46.69 C6.93 44.93, 8.39 43.17, 10.04 41.45 C11.7 39.73, 13.56 38.03, 15.6 36.38 C17.64 34.72, 19.89 33.09, 22.31 31.5 C24.73 29.91, 27.34 28.36, 30.11 26.86 C32.89 25.37, 35.84 23.91, 38.95 22.5 C42.06 21.1, 45.35 19.75, 48.77 18.45 C52.19 17.16, 55.77 15.92, 59.48 14.74 C63.18 13.56, 67.04 12.44, 71 11.39 C74.96 10.34, 79.06 9.36, 83.25 8.44 C87.44 7.53, 91.75 6.68, 96.13 5.9 C100.52 5.13, 105.01 4.43, 109.55 3.8 C114.1 3.17, 118.73 2.62, 123.41 2.15 C128.08 1.67, 132.82 1.27, 137.59 0.96 C142.35 0.64, 147.17 0.4, 151.99 0.24 C156.81 0.08, 161.66 0, 166.5 0 C171.34 0, 176.19 0.08, 181.01 0.24 C185.83 0.4, 190.65 0.64, 195.41 0.96 C200.18 1.27, 204.92 1.67, 209.59 2.15 C214.27 2.62, 218.9 3.17, 223.45 3.8 C227.99 4.43, 232.48 5.13, 236.87 5.9 C241.25 6.68, 245.56 7.53, 249.75 8.44 C253.94 9.36, 258.04 10.34, 262 11.39 C265.96 12.44, 269.82 13.56, 273.52 14.74 C277.23 15.92, 280.81 17.16, 284.23 18.45 C287.65 19.75, 290.94 21.1, 294.05 22.5 C297.16 23.91, 300.11 25.37, 302.89 26.86 C305.66 28.36, 308.27 29.91, 310.69 31.5 C313.11 33.09, 315.36 34.72, 317.4 36.38 C319.44 38.03, 321.3 39.73, 322.96 41.45 C324.61 43.17, 326.07 44.93, 327.33 46.69 C328.58 48.46, 329.63 50.26, 330.47 52.06 C331.31 53.86, 331.94 55.69, 332.37 57.51 C332.79 59.33, 332.89 62.08, 333 63 C333.11 63.92, 333.11 62.08, 333 63" stroke="#000000" stroke-width="2" fill="none"></path></g><g transform="translate(122 61.5) rotate(0 48 12.5)"><text x="0" y="19" font-family="Cascadia, Segoe UI Emoji" font-size="20px" fill="#000000" text-anchor="start" style="white-space: pre;" direction="ltr">Attribut</text></g></svg>