<svg version="1.1" xmlns="http://www.w3.org/2000/svg" viewBox="0 0 429.3333740234375 209.33331298828125" width="429.3333740234375" height="209.33331298828125">
  <!-- svg-source:excalidraw -->
  
  <defs>
    <style class="style-fonts">
      @font-face {
        font-family: "Virgil";
        src: url("https://excalidraw.com/Virgil.woff2");
      }
      @font-face {
        font-family: "Cascadia";
        src: url("https://excalidraw.com/Cascadia.woff2");
      }
    </style>
  </defs>
  <g transform="translate(152.66668701171875 87.8333740234375) rotate(0 58.5 17)"><text x="58.5" y="27" font-family="Cascadia, Segoe UI Emoji" font-size="28px" fill="#000000" text-anchor="middle" style="white-space: pre;" direction="ltr">Entität</text></g><g stroke-linecap="round" transform="translate(10 10) rotate(0 204.66668701171875 94.66665649414062)"><path d="M409.33 94.67 C409.33 97.02, 409.14 99.39, 408.76 101.74 C408.38 104.09, 407.81 106.44, 407.05 108.78 C406.29 111.11, 405.34 113.43, 404.2 115.73 C403.07 118.03, 401.74 120.32, 400.24 122.57 C398.74 124.82, 397.05 127.06, 395.19 129.25 C393.32 131.45, 391.28 133.62, 389.07 135.74 C386.85 137.87, 384.46 139.96, 381.91 142 C379.36 144.04, 376.64 146.05, 373.77 147.99 C370.9 149.94, 367.86 151.85, 364.68 153.69 C361.5 155.53, 358.17 157.33, 354.7 159.06 C351.23 160.78, 347.61 162.46, 343.88 164.06 C340.14 165.67, 336.26 167.21, 332.27 168.68 C328.29 170.15, 324.17 171.56, 319.96 172.88 C315.75 174.21, 311.42 175.47, 307 176.65 C302.58 177.83, 298.06 178.94, 293.47 179.96 C288.87 180.98, 284.19 181.93, 279.44 182.79 C274.69 183.65, 269.87 184.43, 264.99 185.13 C260.12 185.82, 255.18 186.44, 250.21 186.96 C245.24 187.48, 240.21 187.92, 235.17 188.28 C230.13 188.63, 225.05 188.89, 219.96 189.07 C214.88 189.24, 209.76 189.33, 204.67 189.33 C199.57 189.33, 194.46 189.24, 189.37 189.07 C184.29 188.89, 179.2 188.63, 174.16 188.28 C169.12 187.92, 164.09 187.48, 159.12 186.96 C154.15 186.44, 149.21 185.82, 144.34 185.13 C139.47 184.43, 134.64 183.65, 129.89 182.79 C125.15 181.93, 120.46 180.98, 115.87 179.96 C111.27 178.94, 106.75 177.83, 102.33 176.65 C97.92 175.47, 93.59 174.21, 89.37 172.88 C85.16 171.56, 81.05 170.15, 77.06 168.68 C73.07 167.21, 69.2 165.67, 65.46 164.06 C61.72 162.46, 58.1 160.78, 54.64 159.06 C51.17 157.33, 47.83 155.53, 44.65 153.69 C41.47 151.85, 38.44 149.94, 35.56 147.99 C32.69 146.05, 29.97 144.04, 27.42 142 C24.87 139.96, 22.48 137.87, 20.27 135.74 C18.06 133.62, 16.01 131.45, 14.15 129.25 C12.29 127.06, 10.6 124.82, 9.09 122.57 C7.59 120.32, 6.27 118.03, 5.13 115.73 C4 113.43, 3.05 111.11, 2.29 108.78 C1.53 106.44, 0.95 104.09, 0.57 101.74 C0.19 99.39, 0 97.02, 0 94.67 C0 92.31, 0.19 89.94, 0.57 87.59 C0.95 85.24, 1.53 82.89, 2.29 80.56 C3.05 78.23, 4 75.9, 5.13 73.6 C6.27 71.3, 7.59 69.02, 9.09 66.76 C10.6 64.51, 12.29 62.28, 14.15 60.08 C16.01 57.89, 18.06 55.72, 20.27 53.59 C22.48 51.47, 24.87 49.38, 27.42 47.33 C29.97 45.29, 32.69 43.29, 35.56 41.34 C38.44 39.39, 41.47 37.49, 44.65 35.64 C47.83 33.8, 51.17 32.01, 54.64 30.28 C58.1 28.55, 61.72 26.88, 65.46 25.27 C69.2 23.67, 73.07 22.12, 77.06 20.65 C81.05 19.18, 85.16 17.78, 89.37 16.45 C93.59 15.12, 97.92 13.86, 102.33 12.68 C106.75 11.5, 111.27 10.4, 115.87 9.37 C120.46 8.35, 125.15 7.41, 129.89 6.54 C134.64 5.68, 139.47 4.9, 144.34 4.21 C149.21 3.51, 154.15 2.9, 159.12 2.37 C164.09 1.85, 169.12 1.41, 174.16 1.06 C179.2 0.71, 184.29 0.44, 189.37 0.26 C194.46 0.09, 199.57 0, 204.67 0 C209.76 0, 214.88 0.09, 219.96 0.26 C225.05 0.44, 230.13 0.71, 235.17 1.06 C240.21 1.41, 245.24 1.85, 250.21 2.37 C255.18 2.9, 260.12 3.51, 264.99 4.21 C269.87 4.9, 274.69 5.68, 279.44 6.54 C284.19 7.41, 288.87 8.35, 293.47 9.37 C298.06 10.4, 302.58 11.5, 307 12.68 C311.42 13.86, 315.75 15.12, 319.96 16.45 C324.17 17.78, 328.29 19.18, 332.27 20.65 C336.26 22.12, 340.14 23.67, 343.88 25.27 C347.61 26.88, 351.23 28.55, 354.7 30.28 C358.17 32.01, 361.5 33.8, 364.68 35.64 C367.86 37.49, 370.9 39.39, 373.77 41.34 C376.64 43.29, 379.36 45.29, 381.91 47.33 C384.46 49.38, 386.85 51.47, 389.07 53.59 C391.28 55.72, 393.32 57.89, 395.19 60.08 C397.05 62.28, 398.74 64.51, 400.24 66.76 C401.74 69.02, 403.07 71.3, 404.2 73.6 C405.34 75.9, 406.29 78.23, 407.05 80.56 C407.81 82.89, 408.38 85.24, 408.76 87.59 C409.14 89.94, 409.33 92.31, 409.33 94.67" stroke="#000000" stroke-width="2" fill="none"></path></g></svg>