<svg version="1.1" xmlns="http://www.w3.org/2000/svg" viewBox="0 0 803.27980021921 320.37435565298216" width="803.27980021921" height="320.37435565298216">
  <!-- svg-source:excalidraw -->
  
  <defs>
    <style class="style-fonts">
      @font-face {
        font-family: "Virgil";
        src: url("https://excalidraw.com/Virgil.woff2");
      }
      @font-face {
        font-family: "Cascadia";
        src: url("https://excalidraw.com/Cascadia.woff2");
      }
    </style>
  </defs>
  <g stroke-linecap="round" transform="translate(51.27980021920996 198) rotate(0 51 51)"><path d="M102 51 C102 53.22, 101.85 55.46, 101.56 57.66 C101.27 59.86, 100.84 62.06, 100.26 64.2 C99.69 66.34, 98.97 68.47, 98.12 70.52 C97.27 72.57, 96.28 74.58, 95.17 76.5 C94.06 78.42, 92.81 80.29, 91.46 82.05 C90.11 83.81, 88.63 85.49, 87.06 87.06 C85.49 88.63, 83.81 90.11, 82.05 91.46 C80.29 92.81, 78.42 94.06, 76.5 95.17 C74.58 96.28, 72.57 97.27, 70.52 98.12 C68.47 98.97, 66.34 99.69, 64.2 100.26 C62.06 100.84, 59.86 101.27, 57.66 101.56 C55.46 101.85, 53.22 102, 51 102 C48.78 102, 46.54 101.85, 44.34 101.56 C42.14 101.27, 39.94 100.84, 37.8 100.26 C35.66 99.69, 33.53 98.97, 31.48 98.12 C29.43 97.27, 27.42 96.28, 25.5 95.17 C23.58 94.06, 21.71 92.81, 19.95 91.46 C18.19 90.11, 16.51 88.63, 14.94 87.06 C13.37 85.49, 11.89 83.81, 10.54 82.05 C9.19 80.29, 7.94 78.42, 6.83 76.5 C5.72 74.58, 4.73 72.57, 3.88 70.52 C3.03 68.47, 2.31 66.34, 1.74 64.2 C1.16 62.06, 0.73 59.86, 0.44 57.66 C0.15 55.46, 0 53.22, 0 51 C0 48.78, 0.15 46.54, 0.44 44.34 C0.73 42.14, 1.16 39.94, 1.74 37.8 C2.31 35.66, 3.03 33.53, 3.88 31.48 C4.73 29.43, 5.72 27.42, 6.83 25.5 C7.94 23.58, 9.19 21.71, 10.54 19.95 C11.89 18.19, 13.37 16.51, 14.94 14.94 C16.51 13.37, 18.19 11.89, 19.95 10.54 C21.71 9.19, 23.58 7.94, 25.5 6.83 C27.42 5.72, 29.43 4.73, 31.48 3.88 C33.53 3.03, 35.66 2.31, 37.8 1.74 C39.94 1.16, 42.14 0.73, 44.34 0.44 C46.54 0.15, 48.78 0, 51 0 C53.22 0, 55.46 0.15, 57.66 0.44 C59.86 0.73, 62.06 1.16, 64.2 1.74 C66.34 2.31, 68.47 3.03, 70.52 3.88 C72.57 4.73, 74.58 5.72, 76.5 6.83 C78.42 7.94, 80.29 9.19, 82.05 10.54 C83.81 11.89, 85.49 13.37, 87.06 14.94 C88.63 16.51, 90.11 18.19, 91.46 19.95 C92.81 21.71, 94.06 23.58, 95.17 25.5 C96.28 27.42, 97.27 29.43, 98.12 31.48 C98.97 33.53, 99.69 35.66, 100.26 37.8 C100.84 39.94, 101.27 42.14, 101.56 44.34 C101.85 46.54, 101.93 49.89, 102 51 C102.07 52.11, 102.07 49.89, 102 51" stroke="#000000" stroke-width="1" fill="none"></path></g><g transform="translate(75.7423539972263 237.43755415948607) rotate(0 26.475000381469755 11.5)"><text x="26.475000381469727" y="0" font-family="Helvetica, Segoe UI Emoji" font-size="20px" fill="#000000" text-anchor="middle" style="white-space: pre;" direction="ltr" dominant-baseline="text-before-edge">$z_0$</text></g><g stroke-linecap="round"><g transform="translate(11.27980021920996 193) rotate(0 16.999355652982047 29.443747686898263)"><path d="M0 0 C5.67 9.81, 28.33 49.07, 34 58.89 M0 0 C5.67 9.81, 28.33 49.07, 34 58.89" stroke="#000000" stroke-width="1" fill="none"></path></g></g><mask></mask><g stroke-linecap="round"><g transform="translate(44.27980021920996 251) rotate(0 -17.13990010960498 29.68717782649108)"><path d="M0 0 C-5.71 9.9, -28.57 49.48, -34.28 59.37 M0 0 C-5.71 9.9, -28.57 49.48, -34.28 59.37" stroke="#000000" stroke-width="1" fill="none"></path></g></g><mask></mask><g stroke-linecap="round"><g transform="translate(11.27980021920996 191) rotate(0 0 59)"><path d="M0 0 C0 19.67, 0 98.33, 0 118 M0 0 C0 19.67, 0 98.33, 0 118" stroke="#000000" stroke-width="1" fill="none"></path></g></g><mask></mask><g stroke-linecap="round"><g transform="translate(78.27980021920996 189) rotate(0 21 -60.0009532285755)"><path d="M0 0 C3.5 -20, 14 -119.5, 21 -120 C28 -120.5, 38.5 -22.5, 42 -3 M0 0 C3.5 -20, 14 -119.5, 21 -120 C28 -120.5, 38.5 -22.5, 42 -3" stroke="#000000" stroke-width="1" fill="none"></path></g><g transform="translate(78.27980021920996 189) rotate(0 21 -60.0009532285755)"><path d="M27.93 -29.5 C32.89 -20.15, 37.85 -10.81, 42 -3 M27.93 -29.5 C31.92 -21.98, 35.91 -14.46, 42 -3" stroke="#000000" stroke-width="1" fill="none"></path></g><g transform="translate(78.27980021920996 189) rotate(0 21 -60.0009532285755)"><path d="M48.25 -32.34 C46.05 -22, 43.84 -11.65, 42 -3 M48.25 -32.34 C46.48 -24.02, 44.7 -15.69, 42 -3" stroke="#000000" stroke-width="1" fill="none"></path></g></g><mask></mask><g transform="translate(60.27980021920996 10) rotate(0 47.108333587646484 11.5)"><text x="0" y="0" font-family="Helvetica, Segoe UI Emoji" font-size="20px" fill="#000000" text-anchor="start" style="white-space: pre;" direction="ltr" dominant-baseline="text-before-edge">(\#, a): A\#</text></g><g transform="translate(56.27980021920996 36) rotate(0 44.25833511352539 11.5)"><text x="0" y="0" font-family="Helvetica, Segoe UI Emoji" font-size="20px" fill="#000000" text-anchor="start" style="white-space: pre;" direction="ltr" dominant-baseline="text-before-edge">(A, a): AA</text></g><g stroke-linecap="round" transform="translate(364.27980021920996 195) rotate(0 54 54)"><path d="M108 54 C108 56.35, 107.84 58.72, 107.54 61.05 C107.23 63.38, 106.77 65.71, 106.16 67.98 C105.55 70.25, 104.79 72.49, 103.89 74.66 C102.99 76.84, 101.94 78.97, 100.77 81 C99.59 83.03, 98.27 85.01, 96.84 86.87 C95.41 88.74, 93.85 90.52, 92.18 92.18 C90.52 93.85, 88.74 95.41, 86.87 96.84 C85.01 98.27, 83.03 99.59, 81 100.77 C78.97 101.94, 76.84 102.99, 74.66 103.89 C72.49 104.79, 70.25 105.55, 67.98 106.16 C65.71 106.77, 63.38 107.23, 61.05 107.54 C58.72 107.84, 56.35 108, 54 108 C51.65 108, 49.28 107.84, 46.95 107.54 C44.62 107.23, 42.29 106.77, 40.02 106.16 C37.75 105.55, 35.51 104.79, 33.34 103.89 C31.16 102.99, 29.03 101.94, 27 100.77 C24.97 99.59, 22.99 98.27, 21.13 96.84 C19.26 95.41, 17.48 93.85, 15.82 92.18 C14.15 90.52, 12.59 88.74, 11.16 86.87 C9.73 85.01, 8.41 83.03, 7.23 81 C6.06 78.97, 5.01 76.84, 4.11 74.66 C3.21 72.49, 2.45 70.25, 1.84 67.98 C1.23 65.71, 0.77 63.38, 0.46 61.05 C0.16 58.72, 0 56.35, 0 54 C0 51.65, 0.16 49.28, 0.46 46.95 C0.77 44.62, 1.23 42.29, 1.84 40.02 C2.45 37.75, 3.21 35.51, 4.11 33.34 C5.01 31.16, 6.06 29.03, 7.23 27 C8.41 24.97, 9.73 22.99, 11.16 21.13 C12.59 19.26, 14.15 17.48, 15.82 15.82 C17.48 14.15, 19.26 12.59, 21.13 11.16 C22.99 9.73, 24.97 8.41, 27 7.23 C29.03 6.06, 31.16 5.01, 33.34 4.11 C35.51 3.21, 37.75 2.45, 40.02 1.84 C42.29 1.23, 44.62 0.77, 46.95 0.46 C49.28 0.16, 51.65 0, 54 0 C56.35 0, 58.72 0.16, 61.05 0.46 C63.38 0.77, 65.71 1.23, 67.98 1.84 C70.25 2.45, 72.49 3.21, 74.66 4.11 C76.84 5.01, 78.97 6.06, 81 7.23 C83.03 8.41, 85.01 9.73, 86.87 11.16 C88.74 12.59, 90.52 14.15, 92.18 15.82 C93.85 17.48, 95.41 19.26, 96.84 21.13 C98.27 22.99, 99.59 24.97, 100.77 27 C101.94 29.03, 102.99 31.16, 103.89 33.34 C104.79 35.51, 105.55 37.75, 106.16 40.02 C106.77 42.29, 107.23 44.62, 107.54 46.95 C107.84 49.28, 107.92 52.83, 108 54 C108.08 55.17, 108.08 52.83, 108 54" stroke="#000000" stroke-width="1" fill="none"></path></g><g transform="translate(391.6210336536667 237.3162338159264) rotate(0 26.475000381469727 11.5)"><text x="26.475000381469727" y="0" font-family="Helvetica, Segoe UI Emoji" font-size="20px" fill="#000000" text-anchor="middle" style="white-space: pre;" direction="ltr" dominant-baseline="text-before-edge">$z_1$</text></g><g stroke-linecap="round"><g transform="translate(160.27980021920996 251) rotate(0 99 0)"><path d="M0 0 C33 0, 165 0, 198 0 M0 0 C33 0, 165 0, 198 0" stroke="#000000" stroke-width="1" fill="none"></path></g><g transform="translate(160.27980021920996 251) rotate(0 99 0)"><path d="M169.81 10.26 C180.35 6.42, 190.9 2.59, 198 0 M169.81 10.26 C178.61 7.06, 187.41 3.85, 198 0" stroke="#000000" stroke-width="1" fill="none"></path></g><g transform="translate(160.27980021920996 251) rotate(0 99 0)"><path d="M169.81 -10.26 C180.35 -6.42, 190.9 -2.59, 198 0 M169.81 -10.26 C178.61 -7.06, 187.41 -3.85, 198 0" stroke="#000000" stroke-width="1" fill="none"></path></g></g><mask></mask><g transform="translate(216.27980021920996 225) rotate(0 79.25 11.5)"><text x="0" y="0" font-family="Helvetica, Segoe UI Emoji" font-size="20px" fill="#000000" text-anchor="start" style="white-space: pre;" direction="ltr" dominant-baseline="text-before-edge">(A, b): $\epsilon$</text></g><g stroke-linecap="round"><g transform="translate(389.27980021920996 190) rotate(0 26 -62.000101345876544)"><path d="M0 0 C4 -20.67, 15.33 -123.83, 24 -124 C32.67 -124.17, 47.33 -21.5, 52 -1 M0 0 C4 -20.67, 15.33 -123.83, 24 -124 C32.67 -124.17, 47.33 -21.5, 52 -1" stroke="#000000" stroke-width="1" fill="none"></path></g><g transform="translate(389.27980021920996 190) rotate(0 26 -62.000101345876544)"><path d="M36.87 -26.91 C40.97 -19.89, 45.07 -12.87, 52 -1 M36.87 -26.91 C41.52 -18.94, 46.18 -10.97, 52 -1" stroke="#000000" stroke-width="1" fill="none"></path></g><g transform="translate(389.27980021920996 190) rotate(0 26 -62.000101345876544)"><path d="M57.06 -30.57 C55.69 -22.56, 54.32 -14.55, 52 -1 M57.06 -30.57 C55.51 -21.48, 53.95 -12.38, 52 -1" stroke="#000000" stroke-width="1" fill="none"></path></g></g><mask></mask><g transform="translate(377.27980021920996 37) rotate(0 79.25 11.5)"><text x="0" y="0" font-family="Helvetica, Segoe UI Emoji" font-size="20px" fill="#000000" text-anchor="start" style="white-space: pre;" direction="ltr" dominant-baseline="text-before-edge">(A, b): $\epsilon$</text></g><g stroke-linecap="round" transform="translate(685.27980021921 194) rotate(0 54 54)"><path d="M108 54 C108 56.35, 107.84 58.72, 107.54 61.05 C107.23 63.38, 106.77 65.71, 106.16 67.98 C105.55 70.25, 104.79 72.49, 103.89 74.66 C102.99 76.84, 101.94 78.97, 100.77 81 C99.59 83.03, 98.27 85.01, 96.84 86.87 C95.41 88.74, 93.85 90.52, 92.18 92.18 C90.52 93.85, 88.74 95.41, 86.87 96.84 C85.01 98.27, 83.03 99.59, 81 100.77 C78.97 101.94, 76.84 102.99, 74.66 103.89 C72.49 104.79, 70.25 105.55, 67.98 106.16 C65.71 106.77, 63.38 107.23, 61.05 107.54 C58.72 107.84, 56.35 108, 54 108 C51.65 108, 49.28 107.84, 46.95 107.54 C44.62 107.23, 42.29 106.77, 40.02 106.16 C37.75 105.55, 35.51 104.79, 33.34 103.89 C31.16 102.99, 29.03 101.94, 27 100.77 C24.97 99.59, 22.99 98.27, 21.13 96.84 C19.26 95.41, 17.48 93.85, 15.82 92.18 C14.15 90.52, 12.59 88.74, 11.16 86.87 C9.73 85.01, 8.41 83.03, 7.23 81 C6.06 78.97, 5.01 76.84, 4.11 74.66 C3.21 72.49, 2.45 70.25, 1.84 67.98 C1.23 65.71, 0.77 63.38, 0.46 61.05 C0.16 58.72, 0 56.35, 0 54 C0 51.65, 0.16 49.28, 0.46 46.95 C0.77 44.62, 1.23 42.29, 1.84 40.02 C2.45 37.75, 3.21 35.51, 4.11 33.34 C5.01 31.16, 6.06 29.03, 7.23 27 C8.41 24.97, 9.73 22.99, 11.16 21.13 C12.59 19.26, 14.15 17.48, 15.82 15.82 C17.48 14.15, 19.26 12.59, 21.13 11.16 C22.99 9.73, 24.97 8.41, 27 7.23 C29.03 6.06, 31.16 5.01, 33.34 4.11 C35.51 3.21, 37.75 2.45, 40.02 1.84 C42.29 1.23, 44.62 0.77, 46.95 0.46 C49.28 0.16, 51.65 0, 54 0 C56.35 0, 58.72 0.16, 61.05 0.46 C63.38 0.77, 65.71 1.23, 67.98 1.84 C70.25 2.45, 72.49 3.21, 74.66 4.11 C76.84 5.01, 78.97 6.06, 81 7.23 C83.03 8.41, 85.01 9.73, 86.87 11.16 C88.74 12.59, 90.52 14.15, 92.18 15.82 C93.85 17.48, 95.41 19.26, 96.84 21.13 C98.27 22.99, 99.59 24.97, 100.77 27 C101.94 29.03, 102.99 31.16, 103.89 33.34 C104.79 35.51, 105.55 37.75, 106.16 40.02 C106.77 42.29, 107.23 44.62, 107.54 46.95 C107.84 49.28, 107.92 52.83, 108 54 C108.08 55.17, 108.08 52.83, 108 54" stroke="#000000" stroke-width="1" fill="none"></path></g><g transform="translate(712.6210336536666 236.3162338159264) rotate(0 26.475000381469727 11.5)"><text x="26.475000381469727" y="0" font-family="Helvetica, Segoe UI Emoji" font-size="20px" fill="#000000" text-anchor="middle" style="white-space: pre;" direction="ltr" dominant-baseline="text-before-edge">$z_2$</text></g><g stroke-linecap="round"><g transform="translate(481.27980021920996 250) rotate(0 99 0)"><path d="M0 0 C33 0, 165 0, 198 0 M0 0 C33 0, 165 0, 198 0" stroke="#000000" stroke-width="1" fill="none"></path></g><g transform="translate(481.27980021920996 250) rotate(0 99 0)"><path d="M169.81 10.26 C176.41 7.86, 183 5.46, 198 0 M169.81 10.26 C180.67 6.31, 191.54 2.35, 198 0" stroke="#000000" stroke-width="1" fill="none"></path></g><g transform="translate(481.27980021920996 250) rotate(0 99 0)"><path d="M169.81 -10.26 C176.41 -7.86, 183 -5.46, 198 0 M169.81 -10.26 C180.67 -6.31, 191.54 -2.35, 198 0" stroke="#000000" stroke-width="1" fill="none"></path></g></g><mask></mask><g transform="translate(537.27980021921 224) rotate(0 83.00833129882812 11.5)"><text x="0" y="0" font-family="Helvetica, Segoe UI Emoji" font-size="20px" fill="#000000" text-anchor="start" style="white-space: pre;" direction="ltr" dominant-baseline="text-before-edge">(\#, $\epsilon$): \#</text></g><g stroke-linecap="round" transform="translate(694.27980021921 203) rotate(0 45 45)"><path d="M90 45 C90 47.13, 89.85 49.29, 89.54 51.4 C89.24 53.52, 88.78 55.63, 88.18 57.68 C87.58 59.73, 86.82 61.75, 85.93 63.69 C85.05 65.64, 84.01 67.53, 82.86 69.33 C81.7 71.12, 80.41 72.86, 79.01 74.47 C77.61 76.08, 76.08 77.61, 74.47 79.01 C72.86 80.41, 71.12 81.7, 69.33 82.86 C67.53 84.01, 65.64 85.05, 63.69 85.93 C61.75 86.82, 59.73 87.58, 57.68 88.18 C55.63 88.78, 53.52 89.24, 51.4 89.54 C49.29 89.85, 47.13 90, 45 90 C42.87 90, 40.71 89.85, 38.6 89.54 C36.48 89.24, 34.37 88.78, 32.32 88.18 C30.27 87.58, 28.25 86.82, 26.31 85.93 C24.36 85.05, 22.47 84.01, 20.67 82.86 C18.88 81.7, 17.14 80.41, 15.53 79.01 C13.92 77.61, 12.39 76.08, 10.99 74.47 C9.59 72.86, 8.3 71.12, 7.14 69.33 C5.99 67.53, 4.95 65.64, 4.07 63.69 C3.18 61.75, 2.42 59.73, 1.82 57.68 C1.22 55.63, 0.76 53.52, 0.46 51.4 C0.15 49.29, 0 47.13, 0 45 C0 42.87, 0.15 40.71, 0.46 38.6 C0.76 36.48, 1.22 34.37, 1.82 32.32 C2.42 30.27, 3.18 28.25, 4.07 26.31 C4.95 24.36, 5.99 22.47, 7.14 20.67 C8.3 18.88, 9.59 17.14, 10.99 15.53 C12.39 13.92, 13.92 12.39, 15.53 10.99 C17.14 9.59, 18.88 8.3, 20.67 7.14 C22.47 5.99, 24.36 4.95, 26.31 4.07 C28.25 3.18, 30.27 2.42, 32.32 1.82 C34.37 1.22, 36.48 0.76, 38.6 0.46 C40.71 0.15, 42.87 0, 45 0 C47.13 0, 49.29 0.15, 51.4 0.46 C53.52 0.76, 55.63 1.22, 57.68 1.82 C59.73 2.42, 61.75 3.18, 63.69 4.07 C65.64 4.95, 67.53 5.99, 69.33 7.14 C71.12 8.3, 72.86 9.59, 74.47 10.99 C76.08 12.39, 77.61 13.92, 79.01 15.53 C80.41 17.14, 81.7 18.88, 82.86 20.67 C84.01 22.47, 85.05 24.36, 85.93 26.31 C86.82 28.25, 87.58 30.27, 88.18 32.32 C88.78 34.37, 89.24 36.48, 89.54 38.6 C89.85 40.71, 89.92 43.93, 90 45 C90.08 46.07, 90.08 43.93, 90 45" stroke="#000000" stroke-width="1" fill="none"></path></g></svg>