<svg version="1.1" xmlns="http://www.w3.org/2000/svg" viewBox="0 0 544 623" width="544" height="623">
  <!-- svg-source:excalidraw -->
  
  <defs>
    <style class="style-fonts">
      @font-face {
        font-family: "Virgil";
        src: url("https://excalidraw.com/Virgil.woff2");
      }
      @font-face {
        font-family: "Cascadia";
        src: url("https://excalidraw.com/Cascadia.woff2");
      }
    </style>
  </defs>
  <g stroke-linecap="round" transform="translate(221 106) rotate(0 54 54)"><path d="M108 54 C108 56.35, 107.84 58.72, 107.54 61.05 C107.23 63.38, 106.77 65.71, 106.16 67.98 C105.55 70.25, 104.79 72.49, 103.89 74.66 C102.99 76.84, 101.94 78.97, 100.77 81 C99.59 83.03, 98.27 85.01, 96.84 86.87 C95.41 88.74, 93.85 90.52, 92.18 92.18 C90.52 93.85, 88.74 95.41, 86.87 96.84 C85.01 98.27, 83.03 99.59, 81 100.77 C78.97 101.94, 76.84 102.99, 74.66 103.89 C72.49 104.79, 70.25 105.55, 67.98 106.16 C65.71 106.77, 63.38 107.23, 61.05 107.54 C58.72 107.84, 56.35 108, 54 108 C51.65 108, 49.28 107.84, 46.95 107.54 C44.62 107.23, 42.29 106.77, 40.02 106.16 C37.75 105.55, 35.51 104.79, 33.34 103.89 C31.16 102.99, 29.03 101.94, 27 100.77 C24.97 99.59, 22.99 98.27, 21.13 96.84 C19.26 95.41, 17.48 93.85, 15.82 92.18 C14.15 90.52, 12.59 88.74, 11.16 86.87 C9.73 85.01, 8.41 83.03, 7.23 81 C6.06 78.97, 5.01 76.84, 4.11 74.66 C3.21 72.49, 2.45 70.25, 1.84 67.98 C1.23 65.71, 0.77 63.38, 0.46 61.05 C0.16 58.72, 0 56.35, 0 54 C0 51.65, 0.16 49.28, 0.46 46.95 C0.77 44.62, 1.23 42.29, 1.84 40.02 C2.45 37.75, 3.21 35.51, 4.11 33.34 C5.01 31.16, 6.06 29.03, 7.23 27 C8.41 24.97, 9.73 22.99, 11.16 21.13 C12.59 19.26, 14.15 17.48, 15.82 15.82 C17.48 14.15, 19.26 12.59, 21.13 11.16 C22.99 9.73, 24.97 8.41, 27 7.23 C29.03 6.06, 31.16 5.01, 33.34 4.11 C35.51 3.21, 37.75 2.45, 40.02 1.84 C42.29 1.23, 44.62 0.77, 46.95 0.46 C49.28 0.16, 51.65 0, 54 0 C56.35 0, 58.72 0.16, 61.05 0.46 C63.38 0.77, 65.71 1.23, 67.98 1.84 C70.25 2.45, 72.49 3.21, 74.66 4.11 C76.84 5.01, 78.97 6.06, 81 7.23 C83.03 8.41, 85.01 9.73, 86.87 11.16 C88.74 12.59, 90.52 14.15, 92.18 15.82 C93.85 17.48, 95.41 19.26, 96.84 21.13 C98.27 22.99, 99.59 24.97, 100.77 27 C101.94 29.03, 102.99 31.16, 103.89 33.34 C104.79 35.51, 105.55 37.75, 106.16 40.02 C106.77 42.29, 107.23 44.62, 107.54 46.95 C107.84 49.28, 107.92 52.83, 108 54 C108.08 55.17, 108.08 52.83, 108 54" stroke="#000000" stroke-width="1" fill="none"></path></g><g stroke-linecap="round"><g transform="translate(320 191) rotate(0 59.75 59.75)"><path d="M0 0 C29.34 29.34, 58.69 58.69, 119.5 119.5 M0 0 C34.05 34.05, 68.09 68.09, 119.5 119.5" stroke="#000000" stroke-width="1" fill="none"></path></g><g transform="translate(320 191) rotate(0 59.75 59.75)"><path d="M92.31 106.82 C98.99 109.93, 105.66 113.05, 119.5 119.5 M92.31 106.82 C100.06 110.43, 107.8 114.05, 119.5 119.5" stroke="#000000" stroke-width="1" fill="none"></path></g><g transform="translate(320 191) rotate(0 59.75 59.75)"><path d="M106.82 92.31 C109.93 98.99, 113.05 105.66, 119.5 119.5 M106.82 92.31 C110.43 100.06, 114.05 107.8, 119.5 119.5" stroke="#000000" stroke-width="1" fill="none"></path></g></g><mask></mask><g stroke-linecap="round" transform="translate(426 293) rotate(0 54 54)"><path d="M108 54 C108 56.35, 107.84 58.72, 107.54 61.05 C107.23 63.38, 106.77 65.71, 106.16 67.98 C105.55 70.25, 104.79 72.49, 103.89 74.66 C102.99 76.84, 101.94 78.97, 100.77 81 C99.59 83.03, 98.27 85.01, 96.84 86.87 C95.41 88.74, 93.85 90.52, 92.18 92.18 C90.52 93.85, 88.74 95.41, 86.87 96.84 C85.01 98.27, 83.03 99.59, 81 100.77 C78.97 101.94, 76.84 102.99, 74.66 103.89 C72.49 104.79, 70.25 105.55, 67.98 106.16 C65.71 106.77, 63.38 107.23, 61.05 107.54 C58.72 107.84, 56.35 108, 54 108 C51.65 108, 49.28 107.84, 46.95 107.54 C44.62 107.23, 42.29 106.77, 40.02 106.16 C37.75 105.55, 35.51 104.79, 33.34 103.89 C31.16 102.99, 29.03 101.94, 27 100.77 C24.97 99.59, 22.99 98.27, 21.13 96.84 C19.26 95.41, 17.48 93.85, 15.82 92.18 C14.15 90.52, 12.59 88.74, 11.16 86.87 C9.73 85.01, 8.41 83.03, 7.23 81 C6.06 78.97, 5.01 76.84, 4.11 74.66 C3.21 72.49, 2.45 70.25, 1.84 67.98 C1.23 65.71, 0.77 63.38, 0.46 61.05 C0.16 58.72, 0 56.35, 0 54 C0 51.65, 0.16 49.28, 0.46 46.95 C0.77 44.62, 1.23 42.29, 1.84 40.02 C2.45 37.75, 3.21 35.51, 4.11 33.34 C5.01 31.16, 6.06 29.03, 7.23 27 C8.41 24.97, 9.73 22.99, 11.16 21.13 C12.59 19.26, 14.15 17.48, 15.82 15.82 C17.48 14.15, 19.26 12.59, 21.13 11.16 C22.99 9.73, 24.97 8.41, 27 7.23 C29.03 6.06, 31.16 5.01, 33.34 4.11 C35.51 3.21, 37.75 2.45, 40.02 1.84 C42.29 1.23, 44.62 0.77, 46.95 0.46 C49.28 0.16, 51.65 0, 54 0 C56.35 0, 58.72 0.16, 61.05 0.46 C63.38 0.77, 65.71 1.23, 67.98 1.84 C70.25 2.45, 72.49 3.21, 74.66 4.11 C76.84 5.01, 78.97 6.06, 81 7.23 C83.03 8.41, 85.01 9.73, 86.87 11.16 C88.74 12.59, 90.52 14.15, 92.18 15.82 C93.85 17.48, 95.41 19.26, 96.84 21.13 C98.27 22.99, 99.59 24.97, 100.77 27 C101.94 29.03, 102.99 31.16, 103.89 33.34 C104.79 35.51, 105.55 37.75, 106.16 40.02 C106.77 42.29, 107.23 44.62, 107.54 46.95 C107.84 49.28, 107.92 52.83, 108 54 C108.08 55.17, 108.08 52.83, 108 54" stroke="#000000" stroke-width="1" fill="none"></path></g><g stroke-linecap="round" transform="translate(223 505) rotate(0 54 54)"><path d="M108 54 C108 56.35, 107.84 58.72, 107.54 61.05 C107.23 63.38, 106.77 65.71, 106.16 67.98 C105.55 70.25, 104.79 72.49, 103.89 74.66 C102.99 76.84, 101.94 78.97, 100.77 81 C99.59 83.03, 98.27 85.01, 96.84 86.87 C95.41 88.74, 93.85 90.52, 92.18 92.18 C90.52 93.85, 88.74 95.41, 86.87 96.84 C85.01 98.27, 83.03 99.59, 81 100.77 C78.97 101.94, 76.84 102.99, 74.66 103.89 C72.49 104.79, 70.25 105.55, 67.98 106.16 C65.71 106.77, 63.38 107.23, 61.05 107.54 C58.72 107.84, 56.35 108, 54 108 C51.65 108, 49.28 107.84, 46.95 107.54 C44.62 107.23, 42.29 106.77, 40.02 106.16 C37.75 105.55, 35.51 104.79, 33.34 103.89 C31.16 102.99, 29.03 101.94, 27 100.77 C24.97 99.59, 22.99 98.27, 21.13 96.84 C19.26 95.41, 17.48 93.85, 15.82 92.18 C14.15 90.52, 12.59 88.74, 11.16 86.87 C9.73 85.01, 8.41 83.03, 7.23 81 C6.06 78.97, 5.01 76.84, 4.11 74.66 C3.21 72.49, 2.45 70.25, 1.84 67.98 C1.23 65.71, 0.77 63.38, 0.46 61.05 C0.16 58.72, 0 56.35, 0 54 C0 51.65, 0.16 49.28, 0.46 46.95 C0.77 44.62, 1.23 42.29, 1.84 40.02 C2.45 37.75, 3.21 35.51, 4.11 33.34 C5.01 31.16, 6.06 29.03, 7.23 27 C8.41 24.97, 9.73 22.99, 11.16 21.13 C12.59 19.26, 14.15 17.48, 15.82 15.82 C17.48 14.15, 19.26 12.59, 21.13 11.16 C22.99 9.73, 24.97 8.41, 27 7.23 C29.03 6.06, 31.16 5.01, 33.34 4.11 C35.51 3.21, 37.75 2.45, 40.02 1.84 C42.29 1.23, 44.62 0.77, 46.95 0.46 C49.28 0.16, 51.65 0, 54 0 C56.35 0, 58.72 0.16, 61.05 0.46 C63.38 0.77, 65.71 1.23, 67.98 1.84 C70.25 2.45, 72.49 3.21, 74.66 4.11 C76.84 5.01, 78.97 6.06, 81 7.23 C83.03 8.41, 85.01 9.73, 86.87 11.16 C88.74 12.59, 90.52 14.15, 92.18 15.82 C93.85 17.48, 95.41 19.26, 96.84 21.13 C98.27 22.99, 99.59 24.97, 100.77 27 C101.94 29.03, 102.99 31.16, 103.89 33.34 C104.79 35.51, 105.55 37.75, 106.16 40.02 C106.77 42.29, 107.23 44.62, 107.54 46.95 C107.84 49.28, 107.92 52.83, 108 54 C108.08 55.17, 108.08 52.83, 108 54" stroke="#000000" stroke-width="1" fill="none"></path></g><g stroke-linecap="round"><g transform="translate(452 391) rotate(0 -66.25 66.25)"><path d="M0 0 C-29.34 29.34, -58.68 58.68, -132.5 132.5 M0 0 C-51.82 51.82, -103.64 103.64, -132.5 132.5" stroke="#000000" stroke-width="1" fill="none"></path></g><g transform="translate(452 391) rotate(0 -66.25 66.25)"><path d="M-119.82 105.31 C-122.63 111.33, -125.44 117.35, -132.5 132.5 M-119.82 105.31 C-124.78 115.94, -129.74 126.58, -132.5 132.5" stroke="#000000" stroke-width="1" fill="none"></path></g><g transform="translate(452 391) rotate(0 -66.25 66.25)"><path d="M-105.31 119.82 C-111.33 122.63, -117.35 125.44, -132.5 132.5 M-105.31 119.82 C-115.94 124.78, -126.58 129.74, -132.5 132.5" stroke="#000000" stroke-width="1" fill="none"></path></g></g><mask></mask><g stroke-linecap="round" transform="translate(10 295) rotate(0 54 54)"><path d="M108 54 C108 56.35, 107.84 58.72, 107.54 61.05 C107.23 63.38, 106.77 65.71, 106.16 67.98 C105.55 70.25, 104.79 72.49, 103.89 74.66 C102.99 76.84, 101.94 78.97, 100.77 81 C99.59 83.03, 98.27 85.01, 96.84 86.87 C95.41 88.74, 93.85 90.52, 92.18 92.18 C90.52 93.85, 88.74 95.41, 86.87 96.84 C85.01 98.27, 83.03 99.59, 81 100.77 C78.97 101.94, 76.84 102.99, 74.66 103.89 C72.49 104.79, 70.25 105.55, 67.98 106.16 C65.71 106.77, 63.38 107.23, 61.05 107.54 C58.72 107.84, 56.35 108, 54 108 C51.65 108, 49.28 107.84, 46.95 107.54 C44.62 107.23, 42.29 106.77, 40.02 106.16 C37.75 105.55, 35.51 104.79, 33.34 103.89 C31.16 102.99, 29.03 101.94, 27 100.77 C24.97 99.59, 22.99 98.27, 21.13 96.84 C19.26 95.41, 17.48 93.85, 15.82 92.18 C14.15 90.52, 12.59 88.74, 11.16 86.87 C9.73 85.01, 8.41 83.03, 7.23 81 C6.06 78.97, 5.01 76.84, 4.11 74.66 C3.21 72.49, 2.45 70.25, 1.84 67.98 C1.23 65.71, 0.77 63.38, 0.46 61.05 C0.16 58.72, 0 56.35, 0 54 C0 51.65, 0.16 49.28, 0.46 46.95 C0.77 44.62, 1.23 42.29, 1.84 40.02 C2.45 37.75, 3.21 35.51, 4.11 33.34 C5.01 31.16, 6.06 29.03, 7.23 27 C8.41 24.97, 9.73 22.99, 11.16 21.13 C12.59 19.26, 14.15 17.48, 15.82 15.82 C17.48 14.15, 19.26 12.59, 21.13 11.16 C22.99 9.73, 24.97 8.41, 27 7.23 C29.03 6.06, 31.16 5.01, 33.34 4.11 C35.51 3.21, 37.75 2.45, 40.02 1.84 C42.29 1.23, 44.62 0.77, 46.95 0.46 C49.28 0.16, 51.65 0, 54 0 C56.35 0, 58.72 0.16, 61.05 0.46 C63.38 0.77, 65.71 1.23, 67.98 1.84 C70.25 2.45, 72.49 3.21, 74.66 4.11 C76.84 5.01, 78.97 6.06, 81 7.23 C83.03 8.41, 85.01 9.73, 86.87 11.16 C88.74 12.59, 90.52 14.15, 92.18 15.82 C93.85 17.48, 95.41 19.26, 96.84 21.13 C98.27 22.99, 99.59 24.97, 100.77 27 C101.94 29.03, 102.99 31.16, 103.89 33.34 C104.79 35.51, 105.55 37.75, 106.16 40.02 C106.77 42.29, 107.23 44.62, 107.54 46.95 C107.84 49.28, 107.92 52.83, 108 54 C108.08 55.17, 108.08 52.83, 108 54" stroke="#000000" stroke-width="1" fill="none"></path></g><g stroke-linecap="round"><g transform="translate(232 524) rotate(0 -65.75 -65.75)"><path d="M0 0 C-33.54 -33.54, -67.07 -67.07, -131.5 -131.5 M0 0 C-27.04 -27.04, -54.08 -54.08, -131.5 -131.5" stroke="#000000" stroke-width="1" fill="none"></path></g><g transform="translate(232 524) rotate(0 -65.75 -65.75)"><path d="M-104.31 -118.82 C-111.24 -122.05, -118.18 -125.29, -131.5 -131.5 M-104.31 -118.82 C-109.9 -121.43, -115.49 -124.04, -131.5 -131.5" stroke="#000000" stroke-width="1" fill="none"></path></g><g transform="translate(232 524) rotate(0 -65.75 -65.75)"><path d="M-118.82 -104.31 C-122.05 -111.24, -125.29 -118.18, -131.5 -131.5 M-118.82 -104.31 C-121.43 -109.9, -124.04 -115.49, -131.5 -131.5" stroke="#000000" stroke-width="1" fill="none"></path></g></g><mask></mask><g stroke-linecap="round"><g transform="translate(107 316) rotate(0 61.50000000000006 -61.49999999999997)"><path d="M0 0 C48.74 -48.74, 97.48 -97.48, 123 -123 M0 0 C35.5 -35.5, 71 -71, 123 -123" stroke="#000000" stroke-width="1" fill="none"></path></g><g transform="translate(107 316) rotate(0 61.50000000000006 -61.49999999999997)"><path d="M110.32 -95.81 C115.35 -106.58, 120.37 -117.36, 123 -123 M110.32 -95.81 C113.98 -103.66, 117.64 -111.51, 123 -123" stroke="#000000" stroke-width="1" fill="none"></path></g><g transform="translate(107 316) rotate(0 61.50000000000006 -61.49999999999997)"><path d="M95.81 -110.32 C106.58 -115.35, 117.36 -120.37, 123 -123 M95.81 -110.32 C103.66 -113.98, 111.51 -117.64, 123 -123" stroke="#000000" stroke-width="1" fill="none"></path></g></g><mask></mask><g stroke-linecap="round"><g transform="translate(174 513) rotate(0 0 44.00000000000006)"><path d="M0 0 C0 32.32, 0 64.63, 0 88 M0 0 C0 30.43, 0 60.85, 0 88" stroke="#000000" stroke-width="1" fill="none"></path></g></g><mask></mask><g stroke-linecap="round"><g transform="translate(174 600) rotate(0 0 0)"><path d="M0 0 C0 0, 0 0, 0 0 M0 0 C0 0, 0 0, 0 0" stroke="#000000" stroke-width="1" fill="none"></path></g></g><mask></mask><g stroke-linecap="round"><g transform="translate(173 604) rotate(0 23.25 -23.25)"><path d="M0 0 C12.05 -12.05, 24.1 -24.1, 46.5 -46.5 M0 0 C17.08 -17.08, 34.17 -34.17, 46.5 -46.5" stroke="#000000" stroke-width="1" fill="none"></path></g></g><mask></mask><g stroke-linecap="round"><g transform="translate(174 513) rotate(0 22.75 22.749999999999943)"><path d="M0 0 C17.41 17.41, 34.83 34.83, 45.5 45.5 M0 0 C10.45 10.45, 20.91 20.91, 45.5 45.5" stroke="#000000" stroke-width="1" fill="none"></path></g></g><mask></mask><g stroke-linecap="round" transform="translate(230 511) rotate(0 47 47)"><path d="M94 47 C94 49.23, 93.84 51.48, 93.52 53.69 C93.2 55.9, 92.72 58.1, 92.1 60.24 C91.47 62.38, 90.68 64.5, 89.75 66.52 C88.83 68.55, 87.74 70.53, 86.54 72.41 C85.33 74.29, 83.98 76.09, 82.52 77.78 C81.06 79.46, 79.46 81.06, 77.78 82.52 C76.09 83.98, 74.29 85.33, 72.41 86.54 C70.53 87.74, 68.55 88.83, 66.52 89.75 C64.5 90.68, 62.38 91.47, 60.24 92.1 C58.1 92.72, 55.9 93.2, 53.69 93.52 C51.48 93.84, 49.23 94, 47 94 C44.77 94, 42.52 93.84, 40.31 93.52 C38.1 93.2, 35.9 92.72, 33.76 92.1 C31.62 91.47, 29.5 90.68, 27.48 89.75 C25.45 88.83, 23.47 87.74, 21.59 86.54 C19.71 85.33, 17.91 83.98, 16.22 82.52 C14.54 81.06, 12.94 79.46, 11.48 77.78 C10.02 76.09, 8.67 74.29, 7.46 72.41 C6.26 70.53, 5.17 68.55, 4.25 66.52 C3.32 64.5, 2.53 62.38, 1.9 60.24 C1.28 58.1, 0.8 55.9, 0.48 53.69 C0.16 51.48, 0 49.23, 0 47 C0 44.77, 0.16 42.52, 0.48 40.31 C0.8 38.1, 1.28 35.9, 1.9 33.76 C2.53 31.62, 3.32 29.5, 4.25 27.48 C5.17 25.45, 6.26 23.47, 7.46 21.59 C8.67 19.71, 10.02 17.91, 11.48 16.22 C12.94 14.54, 14.54 12.94, 16.22 11.48 C17.91 10.02, 19.71 8.67, 21.59 7.46 C23.47 6.26, 25.45 5.17, 27.48 4.25 C29.5 3.32, 31.62 2.53, 33.76 1.9 C35.9 1.28, 38.1 0.8, 40.31 0.48 C42.52 0.16, 44.77 0, 47 0 C49.23 0, 51.48 0.16, 53.69 0.48 C55.9 0.8, 58.1 1.28, 60.24 1.9 C62.38 2.53, 64.5 3.32, 66.52 4.25 C68.55 5.17, 70.53 6.26, 72.41 7.46 C74.29 8.67, 76.09 10.02, 77.78 11.48 C79.46 12.94, 81.06 14.54, 82.52 16.22 C83.98 17.91, 85.33 19.71, 86.54 21.59 C87.74 23.47, 88.83 25.45, 89.75 27.48 C90.68 29.5, 91.47 31.62, 92.1 33.76 C92.72 35.9, 93.2 38.1, 93.52 40.31 C93.84 42.52, 93.92 45.89, 94 47 C94.08 48.11, 94.08 45.89, 94 47" stroke="#000000" stroke-width="1" fill="none"></path></g><g stroke-linecap="round"><g transform="translate(459 280) rotate(0 21 -39)"><path d="M0 0 C5.01 -19.34, 10.01 -38.68, 22 -85 M0 0 C7.2 -27.81, 14.39 -55.61, 22 -85 M22 -85 C26.91 -62.4, 31.83 -39.79, 42 7 M22 -85 C28.75 -53.94, 35.5 -22.88, 42 7" stroke="#000000" stroke-width="1" fill="none"></path></g><g transform="translate(459 280) rotate(0 21 -39)"><path d="M25.99 -18.37 C29.63 -12.6, 33.27 -6.82, 42 7 M25.99 -18.37 C31.22 -10.07, 36.46 -1.77, 42 7" stroke="#000000" stroke-width="1" fill="none"></path></g><g transform="translate(459 280) rotate(0 21 -39)"><path d="M46.04 -22.73 C45.12 -15.96, 44.2 -9.2, 42 7 M46.04 -22.73 C44.72 -13, 43.4 -3.28, 42 7" stroke="#000000" stroke-width="1" fill="none"></path></g></g><mask></mask><g stroke-linecap="round"><g transform="translate(258 95) rotate(0 21 -39)"><path d="M0 0 C8.69 -33.56, 17.37 -67.13, 22 -85 M0 0 C4.69 -18.13, 9.39 -36.26, 22 -85 M22 -85 C29.65 -49.79, 37.31 -14.58, 42 7 M22 -85 C27.56 -59.44, 33.11 -33.89, 42 7" stroke="#000000" stroke-width="1" fill="none"></path></g><g transform="translate(258 95) rotate(0 21 -39)"><path d="M25.99 -18.37 C32.31 -8.35, 38.63 1.67, 42 7 M25.99 -18.37 C29.4 -12.96, 32.82 -7.54, 42 7" stroke="#000000" stroke-width="1" fill="none"></path></g><g transform="translate(258 95) rotate(0 21 -39)"><path d="M46.04 -22.73 C44.44 -10.99, 42.85 0.75, 42 7 M46.04 -22.73 C45.18 -16.39, 44.32 -10.04, 42 7" stroke="#000000" stroke-width="1" fill="none"></path></g></g><mask></mask><g stroke-linecap="round"><g transform="translate(258 95) rotate(0 21 -39)"><path d="M0 0 C6.91 -26.7, 13.82 -53.4, 22 -85 M0 0 C7.61 -29.39, 15.22 -58.79, 22 -85 M22 -85 C29.64 -49.86, 37.28 -14.72, 42 7 M22 -85 C27.03 -61.87, 32.06 -38.74, 42 7" stroke="#000000" stroke-width="1" fill="none"></path></g><g transform="translate(258 95) rotate(0 21 -39)"><path d="M25.99 -18.37 C31.02 -10.4, 36.05 -2.43, 42 7 M25.99 -18.37 C31.52 -9.6, 37.06 -0.82, 42 7" stroke="#000000" stroke-width="1" fill="none"></path></g><g transform="translate(258 95) rotate(0 21 -39)"><path d="M46.04 -22.73 C44.77 -13.39, 43.5 -4.05, 42 7 M46.04 -22.73 C44.64 -12.45, 43.25 -2.17, 42 7" stroke="#000000" stroke-width="1" fill="none"></path></g></g><mask></mask><g stroke-linecap="round"><g transform="translate(36 287) rotate(0 21 -39)"><path d="M0 0 C6.22 -24.02, 12.43 -48.04, 22 -85 M0 0 C6.24 -24.09, 12.47 -48.18, 22 -85 M22 -85 C26.46 -64.49, 30.92 -43.97, 42 7 M22 -85 C27.42 -60.07, 32.84 -35.14, 42 7" stroke="#000000" stroke-width="1" fill="none"></path></g><g transform="translate(36 287) rotate(0 21 -39)"><path d="M25.99 -18.37 C30.51 -11.2, 35.04 -4.03, 42 7 M25.99 -18.37 C30.52 -11.18, 35.06 -3.99, 42 7" stroke="#000000" stroke-width="1" fill="none"></path></g><g transform="translate(36 287) rotate(0 21 -39)"><path d="M46.04 -22.73 C44.9 -14.33, 43.76 -5.93, 42 7 M46.04 -22.73 C44.89 -14.3, 43.75 -5.88, 42 7" stroke="#000000" stroke-width="1" fill="none"></path></g></g><mask></mask><g stroke-linecap="round"><g transform="translate(256 490) rotate(0 21 -39)"><path d="M0 0 C5.29 -20.42, 10.57 -40.84, 22 -85 M0 0 C4.64 -17.94, 9.29 -35.88, 22 -85 M22 -85 C28.49 -55.14, 34.98 -25.27, 42 7 M22 -85 C29.72 -49.49, 37.44 -13.99, 42 7" stroke="#000000" stroke-width="1" fill="none"></path></g><g transform="translate(256 490) rotate(0 21 -39)"><path d="M25.99 -18.37 C29.83 -12.27, 33.68 -6.18, 42 7 M25.99 -18.37 C29.37 -13.01, 32.75 -7.66, 42 7" stroke="#000000" stroke-width="1" fill="none"></path></g><g transform="translate(256 490) rotate(0 21 -39)"><path d="M46.04 -22.73 C45.07 -15.59, 44.1 -8.44, 42 7 M46.04 -22.73 C45.19 -16.45, 44.33 -10.18, 42 7" stroke="#000000" stroke-width="1" fill="none"></path></g></g><mask></mask></svg>