<svg version="1.1" xmlns="http://www.w3.org/2000/svg" viewBox="0 0 662.75 313" width="662.75" height="313">
  <!-- svg-source:excalidraw -->
  
  <defs>
    <style class="style-fonts">
      @font-face {
        font-family: "Virgil";
        src: url("https://excalidraw.com/Virgil.woff2");
      }
      @font-face {
        font-family: "Cascadia";
        src: url("https://excalidraw.com/Cascadia.woff2");
      }
    </style>
  </defs>
  <g stroke-linecap="round" transform="translate(62.25 156) rotate(0 60.5 60.5)"><path d="M121 60.5 C121 62.93, 120.85 65.38, 120.56 67.79 C120.27 70.21, 119.82 72.62, 119.24 74.98 C118.66 77.34, 117.93 79.68, 117.07 81.95 C116.21 84.23, 115.2 86.46, 114.07 88.62 C112.94 90.77, 111.67 92.87, 110.29 94.87 C108.91 96.87, 107.4 98.8, 105.78 100.62 C104.17 102.44, 102.44 104.17, 100.62 105.78 C98.8 107.4, 96.87 108.91, 94.87 110.29 C92.87 111.67, 90.77 112.94, 88.62 114.07 C86.46 115.2, 84.23 116.21, 81.95 117.07 C79.68 117.93, 77.34 118.66, 74.98 119.24 C72.62 119.82, 70.21 120.27, 67.79 120.56 C65.38 120.85, 62.93 121, 60.5 121 C58.07 121, 55.62 120.85, 53.21 120.56 C50.79 120.27, 48.38 119.82, 46.02 119.24 C43.66 118.66, 41.32 117.93, 39.05 117.07 C36.77 116.21, 34.54 115.2, 32.38 114.07 C30.23 112.94, 28.13 111.67, 26.13 110.29 C24.13 108.91, 22.2 107.4, 20.38 105.78 C18.56 104.17, 16.83 102.44, 15.22 100.62 C13.6 98.8, 12.09 96.87, 10.71 94.87 C9.33 92.87, 8.06 90.77, 6.93 88.62 C5.8 86.46, 4.79 84.23, 3.93 81.95 C3.07 79.68, 2.34 77.34, 1.76 74.98 C1.18 72.62, 0.73 70.21, 0.44 67.79 C0.15 65.38, 0 62.93, 0 60.5 C0 58.07, 0.15 55.62, 0.44 53.21 C0.73 50.79, 1.18 48.38, 1.76 46.02 C2.34 43.66, 3.07 41.32, 3.93 39.05 C4.79 36.77, 5.8 34.54, 6.93 32.38 C8.06 30.23, 9.33 28.13, 10.71 26.13 C12.09 24.13, 13.6 22.2, 15.22 20.38 C16.83 18.56, 18.56 16.83, 20.38 15.22 C22.2 13.6, 24.13 12.09, 26.13 10.71 C28.13 9.33, 30.23 8.06, 32.38 6.93 C34.54 5.8, 36.77 4.79, 39.05 3.93 C41.32 3.07, 43.66 2.34, 46.02 1.76 C48.38 1.18, 50.79 0.73, 53.21 0.44 C55.62 0.15, 58.07 0, 60.5 0 C62.93 0, 65.38 0.15, 67.79 0.44 C70.21 0.73, 72.62 1.18, 74.98 1.76 C77.34 2.34, 79.68 3.07, 81.95 3.93 C84.23 4.79, 86.46 5.8, 88.62 6.93 C90.77 8.06, 92.87 9.33, 94.87 10.71 C96.87 12.09, 98.8 13.6, 100.62 15.22 C102.44 16.83, 104.17 18.56, 105.78 20.38 C107.4 22.2, 108.91 24.13, 110.29 26.13 C111.67 28.13, 112.94 30.23, 114.07 32.38 C115.2 34.54, 116.21 36.77, 117.07 39.05 C117.93 41.32, 118.66 43.66, 119.24 46.02 C119.82 48.38, 120.27 50.79, 120.56 53.21 C120.85 55.62, 121 58.07, 121 60.5" stroke="#000000" stroke-width="1" fill="none"></path></g><g transform="translate(115.75 204) rotate(0 7 12.5)"><text x="7" y="20" font-family="Cascadia, Segoe UI Emoji" font-size="20px" fill="#000000" text-anchor="middle" style="white-space: pre;" direction="ltr">A</text></g><g stroke-linecap="round"><g transform="translate(11 169.5) rotate(0 0 44.00000000000006)"><path d="M0 0 C0 27.89, 0 55.79, 0 88 M0 0 C0 24.33, 0 48.67, 0 88" stroke="#000000" stroke-width="1" fill="none"></path></g></g><mask></mask><g stroke-linecap="round"><g transform="translate(11 256.5) rotate(0 0 0)"><path d="M0 0 C0 0, 0 0, 0 0 M0 0 C0 0, 0 0, 0 0" stroke="#000000" stroke-width="1" fill="none"></path></g></g><mask></mask><g stroke-linecap="round"><g transform="translate(10 260.5) rotate(0 23.25 -23.25)"><path d="M0 0 C13.38 -13.38, 26.76 -26.76, 46.5 -46.5 M0 0 C14.9 -14.9, 29.8 -29.8, 46.5 -46.5" stroke="#000000" stroke-width="1" fill="none"></path></g></g><mask></mask><g stroke-linecap="round"><g transform="translate(11 169.5) rotate(0 22.75 22.749999999999943)"><path d="M0 0 C16.01 16.01, 32.02 32.02, 45.5 45.5 M0 0 C13.19 13.19, 26.38 26.38, 45.5 45.5" stroke="#000000" stroke-width="1" fill="none"></path></g></g><mask></mask><g stroke-linecap="round" transform="translate(531.75 151.5) rotate(0 60.5 60.5)"><path d="M121 60.5 C121 62.93, 120.85 65.38, 120.56 67.79 C120.27 70.21, 119.82 72.62, 119.24 74.98 C118.66 77.34, 117.93 79.68, 117.07 81.95 C116.21 84.23, 115.2 86.46, 114.07 88.62 C112.94 90.77, 111.67 92.87, 110.29 94.87 C108.91 96.87, 107.4 98.8, 105.78 100.62 C104.17 102.44, 102.44 104.17, 100.62 105.78 C98.8 107.4, 96.87 108.91, 94.87 110.29 C92.87 111.67, 90.77 112.94, 88.62 114.07 C86.46 115.2, 84.23 116.21, 81.95 117.07 C79.68 117.93, 77.34 118.66, 74.98 119.24 C72.62 119.82, 70.21 120.27, 67.79 120.56 C65.38 120.85, 62.93 121, 60.5 121 C58.07 121, 55.62 120.85, 53.21 120.56 C50.79 120.27, 48.38 119.82, 46.02 119.24 C43.66 118.66, 41.32 117.93, 39.05 117.07 C36.77 116.21, 34.54 115.2, 32.38 114.07 C30.23 112.94, 28.13 111.67, 26.13 110.29 C24.13 108.91, 22.2 107.4, 20.38 105.78 C18.56 104.17, 16.83 102.44, 15.22 100.62 C13.6 98.8, 12.09 96.87, 10.71 94.87 C9.33 92.87, 8.06 90.77, 6.93 88.62 C5.8 86.46, 4.79 84.23, 3.93 81.95 C3.07 79.68, 2.34 77.34, 1.76 74.98 C1.18 72.62, 0.73 70.21, 0.44 67.79 C0.15 65.38, 0 62.93, 0 60.5 C0 58.07, 0.15 55.62, 0.44 53.21 C0.73 50.79, 1.18 48.38, 1.76 46.02 C2.34 43.66, 3.07 41.32, 3.93 39.05 C4.79 36.77, 5.8 34.54, 6.93 32.38 C8.06 30.23, 9.33 28.13, 10.71 26.13 C12.09 24.13, 13.6 22.2, 15.22 20.38 C16.83 18.56, 18.56 16.83, 20.38 15.22 C22.2 13.6, 24.13 12.09, 26.13 10.71 C28.13 9.33, 30.23 8.06, 32.38 6.93 C34.54 5.8, 36.77 4.79, 39.05 3.93 C41.32 3.07, 43.66 2.34, 46.02 1.76 C48.38 1.18, 50.79 0.73, 53.21 0.44 C55.62 0.15, 58.07 0, 60.5 0 C62.93 0, 65.38 0.15, 67.79 0.44 C70.21 0.73, 72.62 1.18, 74.98 1.76 C77.34 2.34, 79.68 3.07, 81.95 3.93 C84.23 4.79, 86.46 5.8, 88.62 6.93 C90.77 8.06, 92.87 9.33, 94.87 10.71 C96.87 12.09, 98.8 13.6, 100.62 15.22 C102.44 16.83, 104.17 18.56, 105.78 20.38 C107.4 22.2, 108.91 24.13, 110.29 26.13 C111.67 28.13, 112.94 30.23, 114.07 32.38 C115.2 34.54, 116.21 36.77, 117.07 39.05 C117.93 41.32, 118.66 43.66, 119.24 46.02 C119.82 48.38, 120.27 50.79, 120.56 53.21 C120.85 55.62, 121 58.07, 121 60.5" stroke="#000000" stroke-width="1" fill="none"></path></g><g transform="translate(585.25 199.5) rotate(0 7 12.5)"><text x="7" y="20" font-family="Cascadia, Segoe UI Emoji" font-size="20px" fill="#000000" text-anchor="middle" style="white-space: pre;" direction="ltr">B</text></g><g stroke-linecap="round"><g transform="translate(203.25 192) rotate(0 154.5 -15)"><path d="M0 0 C36.42 -6.96, 72.84 -13.92, 157 -30 M0 0 C34.21 -6.54, 68.43 -13.08, 157 -30 M157 -30 C192.54 -22.99, 228.08 -15.97, 309 0 M157 -30 C205.58 -20.41, 254.17 -10.82, 309 0" stroke="#000000" stroke-width="1" fill="none"></path></g><g transform="translate(203.25 192) rotate(0 154.5 -15)"><path d="M279.36 4.61 C286.23 3.54, 293.11 2.47, 309 0 M279.36 4.61 C285.82 3.6, 292.28 2.6, 309 0" stroke="#000000" stroke-width="1" fill="none"></path></g><g transform="translate(203.25 192) rotate(0 154.5 -15)"><path d="M283.33 -15.53 C289.28 -11.92, 295.24 -8.32, 309 0 M283.33 -15.53 C288.92 -12.14, 294.52 -8.76, 309 0" stroke="#000000" stroke-width="1" fill="none"></path></g></g><mask></mask><g stroke-linecap="round"><g transform="translate(512.25 243) rotate(0 -154 20.5)"><path d="M0 0 C-52.36 14.03, -104.72 28.06, -153 41 M0 0 C-32.72 8.77, -65.43 17.53, -153 41 M-153 41 C-200.64 28.4, -248.28 15.8, -308 0 M-153 41 C-198.59 28.94, -244.17 16.88, -308 0" stroke="#000000" stroke-width="1" fill="none"></path></g><g transform="translate(512.25 243) rotate(0 -154 20.5)"><path d="M-278.12 -2.71 C-288.35 -1.78, -298.57 -0.86, -308 0 M-278.12 -2.71 C-284.51 -2.13, -290.9 -1.55, -308 0" stroke="#000000" stroke-width="1" fill="none"></path></g><g transform="translate(512.25 243) rotate(0 -154 20.5)"><path d="M-283.37 17.13 C-291.8 11.27, -300.23 5.41, -308 0 M-283.37 17.13 C-288.64 13.47, -293.9 9.8, -308 0" stroke="#000000" stroke-width="1" fill="none"></path></g></g><mask></mask><g stroke-linecap="round"><g transform="translate(97.25 144) rotate(0 29.5 -66)"><path d="M0 0 C14.09 -32.06, 28.18 -64.12, 58 -132 M0 0 C18.19 -41.39, 36.38 -82.79, 58 -132 M58 -132 C58.37 -83.3, 58.74 -34.61, 59 0 M58 -132 C58.34 -86.91, 58.68 -41.82, 59 0" stroke="#000000" stroke-width="1" fill="none"></path></g><g transform="translate(97.25 144) rotate(0 29.5 -66)"><path d="M48.53 -28.11 C51.07 -21.28, 53.61 -14.46, 59 0 M48.53 -28.11 C51.81 -19.3, 55.1 -10.48, 59 0" stroke="#000000" stroke-width="1" fill="none"></path></g><g transform="translate(97.25 144) rotate(0 29.5 -66)"><path d="M69.05 -28.27 C66.61 -21.4, 64.17 -14.54, 59 0 M69.05 -28.27 C65.9 -19.4, 62.75 -10.54, 59 0" stroke="#000000" stroke-width="1" fill="none"></path></g></g><mask></mask><g stroke-linecap="round"><g transform="translate(565.25 140) rotate(0 29.5 -65)"><path d="M0 0 C14.29 -31.49, 28.58 -62.98, 59 -130 M0 0 C16.94 -37.33, 33.88 -74.66, 59 -130 M59 -130 C58.64 -83.83, 58.29 -37.67, 58 0 M59 -130 C58.72 -94.1, 58.45 -58.2, 58 0" stroke="#000000" stroke-width="1" fill="none"></path></g><g transform="translate(565.25 140) rotate(0 29.5 -65)"><path d="M47.96 -28.27 C50.39 -21.42, 52.82 -14.57, 58 0 M47.96 -28.27 C50.84 -20.15, 53.72 -12.03, 58 0" stroke="#000000" stroke-width="1" fill="none"></path></g><g transform="translate(565.25 140) rotate(0 29.5 -65)"><path d="M68.48 -28.11 C65.94 -21.3, 63.4 -14.49, 58 0 M68.48 -28.11 C65.47 -20.04, 62.46 -11.97, 58 0" stroke="#000000" stroke-width="1" fill="none"></path></g></g><mask></mask><g transform="translate(103.25 49) rotate(0 7 12.5)"><text x="0" y="20" font-family="Cascadia, Segoe UI Emoji" font-size="20px" fill="#000000" text-anchor="start" style="white-space: pre;" direction="ltr">0</text></g><g transform="translate(381.25 129) rotate(0 7 12.5)"><text x="0" y="20" font-family="Cascadia, Segoe UI Emoji" font-size="20px" fill="#000000" text-anchor="start" style="white-space: pre;" direction="ltr">1</text></g><g transform="translate(574.25 46) rotate(0 7 12.5)"><text x="0" y="20" font-family="Cascadia, Segoe UI Emoji" font-size="20px" fill="#000000" text-anchor="start" style="white-space: pre;" direction="ltr">1</text></g><g transform="translate(410.25 278) rotate(0 7 12.5)"><text x="0" y="20" font-family="Cascadia, Segoe UI Emoji" font-size="20px" fill="#000000" text-anchor="start" style="white-space: pre;" direction="ltr">0</text></g><g stroke-linecap="round" transform="translate(541.25 160) rotate(0 52 52)"><path d="M104 52 C104 54.26, 103.85 56.54, 103.56 58.79 C103.26 61.03, 102.81 63.27, 102.23 65.46 C101.64 67.64, 100.91 69.81, 100.04 71.9 C99.18 73.99, 98.16 76.04, 97.03 78 C95.9 79.96, 94.63 81.86, 93.25 83.66 C91.88 85.45, 90.37 87.17, 88.77 88.77 C87.17 90.37, 85.45 91.88, 83.66 93.25 C81.86 94.63, 79.96 95.9, 78 97.03 C76.04 98.16, 73.99 99.18, 71.9 100.04 C69.81 100.91, 67.64 101.64, 65.46 102.23 C63.27 102.81, 61.03 103.26, 58.79 103.56 C56.54 103.85, 54.26 104, 52 104 C49.74 104, 47.46 103.85, 45.21 103.56 C42.97 103.26, 40.73 102.81, 38.54 102.23 C36.36 101.64, 34.19 100.91, 32.1 100.04 C30.01 99.18, 27.96 98.16, 26 97.03 C24.04 95.9, 22.14 94.63, 20.34 93.25 C18.55 91.88, 16.83 90.37, 15.23 88.77 C13.63 87.17, 12.12 85.45, 10.75 83.66 C9.37 81.86, 8.1 79.96, 6.97 78 C5.84 76.04, 4.82 73.99, 3.96 71.9 C3.09 69.81, 2.36 67.64, 1.77 65.46 C1.19 63.27, 0.74 61.03, 0.44 58.79 C0.15 56.54, 0 54.26, 0 52 C0 49.74, 0.15 47.46, 0.44 45.21 C0.74 42.97, 1.19 40.73, 1.77 38.54 C2.36 36.36, 3.09 34.19, 3.96 32.1 C4.82 30.01, 5.84 27.96, 6.97 26 C8.1 24.04, 9.37 22.14, 10.75 20.34 C12.12 18.55, 13.63 16.83, 15.23 15.23 C16.83 13.63, 18.55 12.12, 20.34 10.75 C22.14 9.37, 24.04 8.1, 26 6.97 C27.96 5.84, 30.01 4.82, 32.1 3.96 C34.19 3.09, 36.36 2.36, 38.54 1.77 C40.73 1.19, 42.97 0.74, 45.21 0.44 C47.46 0.15, 49.74 0, 52 0 C54.26 0, 56.54 0.15, 58.79 0.44 C61.03 0.74, 63.27 1.19, 65.46 1.77 C67.64 2.36, 69.81 3.09, 71.9 3.96 C73.99 4.82, 76.04 5.84, 78 6.97 C79.96 8.1, 81.86 9.37, 83.66 10.75 C85.45 12.12, 87.17 13.63, 88.77 15.23 C90.37 16.83, 91.88 18.55, 93.25 20.34 C94.63 22.14, 95.9 24.04, 97.03 26 C98.16 27.96, 99.18 30.01, 100.04 32.1 C100.91 34.19, 101.64 36.36, 102.23 38.54 C102.81 40.73, 103.26 42.97, 103.56 45.21 C103.85 47.46, 103.93 50.87, 104 52 C104.07 53.13, 104.07 50.87, 104 52" stroke="#000000" stroke-width="1" fill="none"></path></g></svg>