<svg version="1.1" xmlns="http://www.w3.org/2000/svg" viewBox="0 0 480 360" width="480" height="360">
  <!-- svg-source:excalidraw -->
  
  <defs>
    <style class="style-fonts">
      @font-face {
        font-family: "Virgil";
        src: url("https://excalidraw.com/Virgil.woff2");
      }
      @font-face {
        font-family: "Cascadia";
        src: url("https://excalidraw.com/Cascadia.woff2");
      }
    </style>
  </defs>
  <g stroke-linecap="round" transform="translate(10 30) rotate(0 70 70)"><path d="M140 70 C140 72.61, 139.85 75.24, 139.56 77.84 C139.27 80.43, 138.83 83.03, 138.24 85.58 C137.66 88.12, 136.93 90.65, 136.07 93.12 C135.21 95.59, 134.2 98.02, 133.07 100.37 C131.93 102.73, 130.66 105.03, 129.27 107.24 C127.88 109.45, 126.36 111.6, 124.73 113.64 C123.1 115.69, 121.34 117.65, 119.5 119.5 C117.65 121.34, 115.69 123.1, 113.64 124.73 C111.6 126.36, 109.45 127.88, 107.24 129.27 C105.03 130.66, 102.73 131.93, 100.37 133.07 C98.02 134.2, 95.59 135.21, 93.12 136.07 C90.65 136.93, 88.12 137.66, 85.58 138.24 C83.03 138.83, 80.43 139.27, 77.84 139.56 C75.24 139.85, 72.61 140, 70 140 C67.39 140, 64.76 139.85, 62.16 139.56 C59.57 139.27, 56.97 138.83, 54.42 138.24 C51.88 137.66, 49.35 136.93, 46.88 136.07 C44.41 135.21, 41.98 134.2, 39.63 133.07 C37.27 131.93, 34.97 130.66, 32.76 129.27 C30.55 127.88, 28.4 126.36, 26.36 124.73 C24.31 123.1, 22.35 121.34, 20.5 119.5 C18.66 117.65, 16.9 115.69, 15.27 113.64 C13.64 111.6, 12.12 109.45, 10.73 107.24 C9.34 105.03, 8.07 102.73, 6.93 100.37 C5.8 98.02, 4.79 95.59, 3.93 93.12 C3.07 90.65, 2.34 88.12, 1.76 85.58 C1.17 83.03, 0.73 80.43, 0.44 77.84 C0.15 75.24, 0 72.61, 0 70 C0 67.39, 0.15 64.76, 0.44 62.16 C0.73 59.57, 1.17 56.97, 1.76 54.42 C2.34 51.88, 3.07 49.35, 3.93 46.88 C4.79 44.41, 5.8 41.98, 6.93 39.63 C8.07 37.27, 9.34 34.97, 10.73 32.76 C12.12 30.55, 13.64 28.4, 15.27 26.36 C16.9 24.31, 18.66 22.35, 20.5 20.5 C22.35 18.66, 24.31 16.9, 26.36 15.27 C28.4 13.64, 30.55 12.12, 32.76 10.73 C34.97 9.34, 37.27 8.07, 39.63 6.93 C41.98 5.8, 44.41 4.79, 46.88 3.93 C49.35 3.07, 51.88 2.34, 54.42 1.76 C56.97 1.17, 59.57 0.73, 62.16 0.44 C64.76 0.15, 67.39 0, 70 0 C72.61 0, 75.24 0.15, 77.84 0.44 C80.43 0.73, 83.03 1.17, 85.58 1.76 C88.12 2.34, 90.65 3.07, 93.12 3.93 C95.59 4.79, 98.02 5.8, 100.37 6.93 C102.73 8.07, 105.03 9.34, 107.24 10.73 C109.45 12.12, 111.6 13.64, 113.64 15.27 C115.69 16.9, 117.65 18.66, 119.5 20.5 C121.34 22.35, 123.1 24.31, 124.73 26.36 C126.36 28.4, 127.88 30.55, 129.27 32.76 C130.66 34.97, 131.93 37.27, 133.07 39.63 C134.2 41.98, 135.21 44.41, 136.07 46.88 C136.93 49.35, 137.66 51.88, 138.24 54.42 C138.83 56.97, 139.27 59.57, 139.56 62.16 C139.85 64.76, 139.93 68.69, 140 70 C140.07 71.31, 140.07 68.69, 140 70" stroke="#000000" stroke-width="2" fill="none"></path></g><g transform="translate(70 90) rotate(0 7 12.5)"><text x="0" y="19" font-family="Cascadia, Segoe UI Emoji" font-size="20px" fill="#000000" text-anchor="start" style="white-space: pre;" direction="ltr">A</text></g><g stroke-linecap="round" transform="translate(330 10) rotate(0 70 70)"><path d="M140 70 C140 72.61, 139.85 75.24, 139.56 77.84 C139.27 80.43, 138.83 83.03, 138.24 85.58 C137.66 88.12, 136.93 90.65, 136.07 93.12 C135.21 95.59, 134.2 98.02, 133.07 100.37 C131.93 102.73, 130.66 105.03, 129.27 107.24 C127.88 109.45, 126.36 111.6, 124.73 113.64 C123.1 115.69, 121.34 117.65, 119.5 119.5 C117.65 121.34, 115.69 123.1, 113.64 124.73 C111.6 126.36, 109.45 127.88, 107.24 129.27 C105.03 130.66, 102.73 131.93, 100.37 133.07 C98.02 134.2, 95.59 135.21, 93.12 136.07 C90.65 136.93, 88.12 137.66, 85.58 138.24 C83.03 138.83, 80.43 139.27, 77.84 139.56 C75.24 139.85, 72.61 140, 70 140 C67.39 140, 64.76 139.85, 62.16 139.56 C59.57 139.27, 56.97 138.83, 54.42 138.24 C51.88 137.66, 49.35 136.93, 46.88 136.07 C44.41 135.21, 41.98 134.2, 39.63 133.07 C37.27 131.93, 34.97 130.66, 32.76 129.27 C30.55 127.88, 28.4 126.36, 26.36 124.73 C24.31 123.1, 22.35 121.34, 20.5 119.5 C18.66 117.65, 16.9 115.69, 15.27 113.64 C13.64 111.6, 12.12 109.45, 10.73 107.24 C9.34 105.03, 8.07 102.73, 6.93 100.37 C5.8 98.02, 4.79 95.59, 3.93 93.12 C3.07 90.65, 2.34 88.12, 1.76 85.58 C1.17 83.03, 0.73 80.43, 0.44 77.84 C0.15 75.24, 0 72.61, 0 70 C0 67.39, 0.15 64.76, 0.44 62.16 C0.73 59.57, 1.17 56.97, 1.76 54.42 C2.34 51.88, 3.07 49.35, 3.93 46.88 C4.79 44.41, 5.8 41.98, 6.93 39.63 C8.07 37.27, 9.34 34.97, 10.73 32.76 C12.12 30.55, 13.64 28.4, 15.27 26.36 C16.9 24.31, 18.66 22.35, 20.5 20.5 C22.35 18.66, 24.31 16.9, 26.36 15.27 C28.4 13.64, 30.55 12.12, 32.76 10.73 C34.97 9.34, 37.27 8.07, 39.63 6.93 C41.98 5.8, 44.41 4.79, 46.88 3.93 C49.35 3.07, 51.88 2.34, 54.42 1.76 C56.97 1.17, 59.57 0.73, 62.16 0.44 C64.76 0.15, 67.39 0, 70 0 C72.61 0, 75.24 0.15, 77.84 0.44 C80.43 0.73, 83.03 1.17, 85.58 1.76 C88.12 2.34, 90.65 3.07, 93.12 3.93 C95.59 4.79, 98.02 5.8, 100.37 6.93 C102.73 8.07, 105.03 9.34, 107.24 10.73 C109.45 12.12, 111.6 13.64, 113.64 15.27 C115.69 16.9, 117.65 18.66, 119.5 20.5 C121.34 22.35, 123.1 24.31, 124.73 26.36 C126.36 28.4, 127.88 30.55, 129.27 32.76 C130.66 34.97, 131.93 37.27, 133.07 39.63 C134.2 41.98, 135.21 44.41, 136.07 46.88 C136.93 49.35, 137.66 51.88, 138.24 54.42 C138.83 56.97, 139.27 59.57, 139.56 62.16 C139.85 64.76, 139.93 68.69, 140 70 C140.07 71.31, 140.07 68.69, 140 70" stroke="#000000" stroke-width="2" fill="none"></path></g><g transform="translate(390 70) rotate(0 7 12.5)"><text x="0" y="19" font-family="Cascadia, Segoe UI Emoji" font-size="20px" fill="#000000" text-anchor="start" style="white-space: pre;" direction="ltr">B</text></g><g stroke-linecap="round" transform="translate(170 210) rotate(0 70 70)"><path d="M140 70 C140 72.61, 139.85 75.24, 139.56 77.84 C139.27 80.43, 138.83 83.03, 138.24 85.58 C137.66 88.12, 136.93 90.65, 136.07 93.12 C135.21 95.59, 134.2 98.02, 133.07 100.37 C131.93 102.73, 130.66 105.03, 129.27 107.24 C127.88 109.45, 126.36 111.6, 124.73 113.64 C123.1 115.69, 121.34 117.65, 119.5 119.5 C117.65 121.34, 115.69 123.1, 113.64 124.73 C111.6 126.36, 109.45 127.88, 107.24 129.27 C105.03 130.66, 102.73 131.93, 100.37 133.07 C98.02 134.2, 95.59 135.21, 93.12 136.07 C90.65 136.93, 88.12 137.66, 85.58 138.24 C83.03 138.83, 80.43 139.27, 77.84 139.56 C75.24 139.85, 72.61 140, 70 140 C67.39 140, 64.76 139.85, 62.16 139.56 C59.57 139.27, 56.97 138.83, 54.42 138.24 C51.88 137.66, 49.35 136.93, 46.88 136.07 C44.41 135.21, 41.98 134.2, 39.63 133.07 C37.27 131.93, 34.97 130.66, 32.76 129.27 C30.55 127.88, 28.4 126.36, 26.36 124.73 C24.31 123.1, 22.35 121.34, 20.5 119.5 C18.66 117.65, 16.9 115.69, 15.27 113.64 C13.64 111.6, 12.12 109.45, 10.73 107.24 C9.34 105.03, 8.07 102.73, 6.93 100.37 C5.8 98.02, 4.79 95.59, 3.93 93.12 C3.07 90.65, 2.34 88.12, 1.76 85.58 C1.17 83.03, 0.73 80.43, 0.44 77.84 C0.15 75.24, 0 72.61, 0 70 C0 67.39, 0.15 64.76, 0.44 62.16 C0.73 59.57, 1.17 56.97, 1.76 54.42 C2.34 51.88, 3.07 49.35, 3.93 46.88 C4.79 44.41, 5.8 41.98, 6.93 39.63 C8.07 37.27, 9.34 34.97, 10.73 32.76 C12.12 30.55, 13.64 28.4, 15.27 26.36 C16.9 24.31, 18.66 22.35, 20.5 20.5 C22.35 18.66, 24.31 16.9, 26.36 15.27 C28.4 13.64, 30.55 12.12, 32.76 10.73 C34.97 9.34, 37.27 8.07, 39.63 6.93 C41.98 5.8, 44.41 4.79, 46.88 3.93 C49.35 3.07, 51.88 2.34, 54.42 1.76 C56.97 1.17, 59.57 0.73, 62.16 0.44 C64.76 0.15, 67.39 0, 70 0 C72.61 0, 75.24 0.15, 77.84 0.44 C80.43 0.73, 83.03 1.17, 85.58 1.76 C88.12 2.34, 90.65 3.07, 93.12 3.93 C95.59 4.79, 98.02 5.8, 100.37 6.93 C102.73 8.07, 105.03 9.34, 107.24 10.73 C109.45 12.12, 111.6 13.64, 113.64 15.27 C115.69 16.9, 117.65 18.66, 119.5 20.5 C121.34 22.35, 123.1 24.31, 124.73 26.36 C126.36 28.4, 127.88 30.55, 129.27 32.76 C130.66 34.97, 131.93 37.27, 133.07 39.63 C134.2 41.98, 135.21 44.41, 136.07 46.88 C136.93 49.35, 137.66 51.88, 138.24 54.42 C138.83 56.97, 139.27 59.57, 139.56 62.16 C139.85 64.76, 139.93 68.69, 140 70 C140.07 71.31, 140.07 68.69, 140 70" stroke="#000000" stroke-width="2" fill="none"></path></g><g transform="translate(230 270) rotate(0 7 12.5)"><text x="0" y="19" font-family="Cascadia, Segoe UI Emoji" font-size="20px" fill="#000000" text-anchor="start" style="white-space: pre;" direction="ltr">C</text></g><g stroke-linecap="round"><g transform="translate(290 230) rotate(0 40 -40)"><path d="M0 0 C13.33 -13.33, 66.67 -66.67, 80 -80 M0 0 C13.33 -13.33, 66.67 -66.67, 80 -80" stroke="#000000" stroke-width="2" fill="none"></path></g><g transform="translate(290 230) rotate(0 40 -40)"><path d="M67.32 -52.81 C70.34 -59.27, 73.35 -65.74, 80 -80 M67.32 -52.81 C70.88 -60.45, 74.44 -68.08, 80 -80" stroke="#000000" stroke-width="2" fill="none"></path></g><g transform="translate(290 230) rotate(0 40 -40)"><path d="M52.81 -67.32 C59.27 -70.34, 65.74 -73.35, 80 -80 M52.81 -67.32 C60.45 -70.88, 68.08 -74.44, 80 -80" stroke="#000000" stroke-width="2" fill="none"></path></g></g><mask></mask><g stroke-linecap="round"><g transform="translate(150 90) rotate(0 90 -10)"><path d="M0 0 C30 -3.33, 150 -16.67, 180 -20 M0 0 C30 -3.33, 150 -16.67, 180 -20" stroke="#000000" stroke-width="2" fill="none"></path></g><g transform="translate(150 90) rotate(0 90 -10)"><path d="M153.11 -6.69 C163.02 -11.59, 172.92 -16.5, 180 -20 M153.11 -6.69 C162.81 -11.49, 172.51 -16.29, 180 -20" stroke="#000000" stroke-width="2" fill="none"></path></g><g transform="translate(150 90) rotate(0 90 -10)"><path d="M150.85 -27.08 C161.59 -24.48, 172.32 -21.87, 180 -20 M150.85 -27.08 C161.37 -24.53, 171.88 -21.97, 180 -20" stroke="#000000" stroke-width="2" fill="none"></path></g></g><mask></mask><g stroke-linecap="round"><g transform="translate(130 150) rotate(0 30 40)"><path d="M0 0 C10 13.33, 50 66.67, 60 80 M0 0 C10 13.33, 50 66.67, 60 80" stroke="#000000" stroke-width="2" fill="none"></path></g><g transform="translate(130 150) rotate(0 30 40)"><path d="M34.88 63.6 C42.1 68.32, 49.33 73.03, 60 80 M34.88 63.6 C44.66 69.99, 54.44 76.37, 60 80" stroke="#000000" stroke-width="2" fill="none"></path></g><g transform="translate(130 150) rotate(0 30 40)"><path d="M51.29 51.29 C53.8 59.55, 56.3 67.8, 60 80 M51.29 51.29 C54.68 62.47, 58.07 73.65, 60 80" stroke="#000000" stroke-width="2" fill="none"></path></g></g><mask></mask><g stroke-linecap="round"><g transform="translate(190 230) rotate(0 -30 -40)"><path d="M0 0 C-10 -13.33, -50 -66.67, -60 -80 M0 0 C-10 -13.33, -50 -66.67, -60 -80" stroke="#000000" stroke-width="2" fill="none"></path></g><g transform="translate(190 230) rotate(0 -30 -40)"><path d="M-34.88 -63.6 C-41.55 -67.96, -48.23 -72.32, -60 -80 M-34.88 -63.6 C-42.49 -68.57, -50.11 -73.54, -60 -80" stroke="#000000" stroke-width="2" fill="none"></path></g><g transform="translate(190 230) rotate(0 -30 -40)"><path d="M-51.29 -51.29 C-53.61 -58.92, -55.92 -66.55, -60 -80 M-51.29 -51.29 C-53.93 -59.99, -56.57 -68.69, -60 -80" stroke="#000000" stroke-width="2" fill="none"></path></g></g><mask></mask><g transform="translate(220.11186758854922 50.62547820859436) rotate(0 7 12.5)"><text x="0" y="19" font-family="Cascadia, Segoe UI Emoji" font-size="20px" fill="#000000" text-anchor="start" style="white-space: pre;" direction="ltr">1</text></g><g transform="translate(170 170) rotate(0 7 12.5)"><text x="0" y="19" font-family="Cascadia, Segoe UI Emoji" font-size="20px" fill="#000000" text-anchor="start" style="white-space: pre;" direction="ltr">3</text></g><g transform="translate(330 190) rotate(0 12.5 12.5)"><text x="0" y="19" font-family="Cascadia, Segoe UI Emoji" font-size="20px" fill="#000000" text-anchor="start" style="white-space: pre;" direction="ltr">12</text></g></svg>