<svg version="1.1" xmlns="http://www.w3.org/2000/svg" viewBox="0 0 378 273" width="378" height="273">
  <!-- svg-source:excalidraw -->
  
  <defs>
    <style class="style-fonts">
      @font-face {
        font-family: "Virgil";
        src: url("https://excalidraw.com/Virgil.woff2");
      }
      @font-face {
        font-family: "Cascadia";
        src: url("https://excalidraw.com/Cascadia.woff2");
      }
    </style>
  </defs>
  <rect x="0" y="0" width="378" height="273" fill="#ffffff"></rect><g stroke-linecap="round" transform="translate(10 10) rotate(0 179 126.5)"><path d="M180 0 C216.3 25.9, 252.6 51.8, 358 127 M180 0 C224.17 31.51, 268.33 63.02, 358 127 M358 127 C299.26 168.58, 240.51 210.17, 180 253 M358 127 C317.34 155.78, 276.68 184.57, 180 253 M180 253 C114.29 207.01, 48.59 161.01, 0 127 M180 253 C128.93 217.25, 77.86 181.5, 0 127 M0 127 C37.6 100.47, 75.2 73.94, 180 0 M0 127 C47.12 93.75, 94.25 60.5, 180 0" stroke="#000000" stroke-width="2" fill="none"></path></g><g transform="translate(141 124.5) rotate(0 48 12)"><text x="48" y="19" font-family="Cascadia, Segoe UI Emoji" font-size="20px" fill="#000000" text-anchor="middle" style="white-space: pre;" direction="ltr">Relation</text></g><g transform="translate(38 28.5) rotate(0 7 12.5)"><text x="0" y="19" font-family="Cascadia, Segoe UI Emoji" font-size="20px" fill="#000000" text-anchor="start" style="white-space: pre;" direction="ltr">n</text></g><g transform="translate(324 25.5) rotate(0 7 12.5)"><text x="0" y="19" font-family="Cascadia, Segoe UI Emoji" font-size="20px" fill="#000000" text-anchor="start" style="white-space: pre;" direction="ltr">m</text></g></svg>