<svg version="1.1" xmlns="http://www.w3.org/2000/svg" viewBox="0 0 1190 174" width="1190" height="174">
  <!-- svg-source:excalidraw -->
  
  <defs>
    <style class="style-fonts">
      @font-face {
        font-family: "Virgil";
        src: url("https://excalidraw.com/Virgil.woff2");
      }
      @font-face {
        font-family: "Cascadia";
        src: url("https://excalidraw.com/Cascadia.woff2");
      }
    </style>
  </defs>
  <g transform="translate(16 16) rotate(0 100.5 12.5)"><text x="0" y="20" font-family="Cascadia, Segoe UI Emoji" font-size="20px" fill="#000000" text-anchor="start" style="white-space: pre;" direction="ltr">Syntaxdiagramm 1:</text></g><g stroke-linecap="round"><g transform="translate(10 38) rotate(0 151.5 0)"><path d="M0 0 C85.03 0, 170.05 0, 303 0 M0 0 C76.28 0, 152.56 0, 303 0" stroke="#000000" stroke-width="1" fill="none"></path></g><g transform="translate(10 38) rotate(0 151.5 0)"><path d="M274.81 10.26 C282.72 7.38, 290.63 4.5, 303 0 M274.81 10.26 C281.91 7.68, 289 5.09, 303 0" stroke="#000000" stroke-width="1" fill="none"></path></g><g transform="translate(10 38) rotate(0 151.5 0)"><path d="M274.81 -10.26 C282.72 -7.38, 290.63 -4.5, 303 0 M274.81 -10.26 C281.91 -7.68, 289 -5.09, 303 0" stroke="#000000" stroke-width="1" fill="none"></path></g></g><mask></mask><g stroke-linecap="round" transform="translate(313 10) rotate(0 105 28)"><path d="M0 0 C46.83 0, 93.65 0, 210 0 M0 0 C81.24 0, 162.49 0, 210 0 M210 0 C210 11.94, 210 23.87, 210 56 M210 0 C210 12.59, 210 25.18, 210 56 M210 56 C148.66 56, 87.32 56, 0 56 M210 56 C131.74 56, 53.49 56, 0 56 M0 56 C0 44.71, 0 33.42, 0 0 M0 56 C0 35.56, 0 15.12, 0 0" stroke="#000000" stroke-width="1" fill="none"></path></g><g stroke-linecap="round"><g transform="translate(524 38) rotate(0 328 0)"><path d="M0 0 C233.67 0, 467.34 0, 656 0 M0 0 C222.07 0, 444.14 0, 656 0" stroke="#000000" stroke-width="1" fill="none"></path></g><g transform="translate(524 38) rotate(0 328 0)"><path d="M627.81 10.26 C637.85 6.61, 647.89 2.95, 656 0 M627.81 10.26 C637.35 6.79, 646.9 3.31, 656 0" stroke="#000000" stroke-width="1" fill="none"></path></g><g transform="translate(524 38) rotate(0 328 0)"><path d="M627.81 -10.26 C637.85 -6.61, 647.89 -2.95, 656 0 M627.81 -10.26 C637.35 -6.79, 646.9 -3.31, 656 0" stroke="#000000" stroke-width="1" fill="none"></path></g></g><mask></mask><g stroke-linecap="round"><g transform="translate(617 39) rotate(0 0 47.5)"><path d="M0 0 C0 29.03, 0 58.05, 0 95 M0 0 C0 20.93, 0 41.86, 0 95" stroke="#000000" stroke-width="1" fill="none"></path></g></g><mask></mask><g stroke-linecap="round"><g transform="translate(618 134) rotate(0 60 0)"><path d="M0 0 C30.43 0, 60.85 0, 120 0 M0 0 C38.95 0, 77.91 0, 120 0" stroke="#000000" stroke-width="1" fill="none"></path></g><g transform="translate(618 134) rotate(0 60 0)"><path d="M91.81 10.26 C98.96 7.66, 106.11 5.06, 120 0 M91.81 10.26 C100.96 6.93, 110.11 3.6, 120 0" stroke="#000000" stroke-width="1" fill="none"></path></g><g transform="translate(618 134) rotate(0 60 0)"><path d="M91.81 -10.26 C98.96 -7.66, 106.11 -5.06, 120 0 M91.81 -10.26 C100.96 -6.93, 110.11 -3.6, 120 0" stroke="#000000" stroke-width="1" fill="none"></path></g></g><mask></mask><g stroke-linecap="round" transform="translate(738 105) rotate(0 118 29.5)"><path d="M0 0 C74.42 0, 148.83 0, 236 0 M0 0 C70.44 0, 140.88 0, 236 0 M236 0 C236 14.55, 236 29.11, 236 59 M236 0 C236 20.21, 236 40.42, 236 59 M236 59 C147.32 59, 58.63 59, 0 59 M236 59 C158.42 59, 80.84 59, 0 59 M0 59 C0 35.98, 0 12.96, 0 0 M0 59 C0 38.96, 0 18.91, 0 0" stroke="#000000" stroke-width="1" fill="none"></path></g><g stroke-linecap="round"><g transform="translate(974 136) rotate(0 51.5 0)"><path d="M0 0 C31.19 0, 62.39 0, 103 0 M0 0 C21.58 0, 43.17 0, 103 0" stroke="#000000" stroke-width="1" fill="none"></path></g></g><mask></mask><g stroke-linecap="round"><g transform="translate(1077 136) rotate(0 0 -49)"><path d="M0 0 C0 -33.74, 0 -67.49, 0 -98 M0 0 C0 -39.16, 0 -78.33, 0 -98" stroke="#000000" stroke-width="1" fill="none"></path></g><g transform="translate(1077 136) rotate(0 0 -49)"><path d="M10.26 -69.81 C6.73 -79.52, 3.19 -89.22, 0 -98 M10.26 -69.81 C6.16 -81.08, 2.06 -92.34, 0 -98" stroke="#000000" stroke-width="1" fill="none"></path></g><g transform="translate(1077 136) rotate(0 0 -49)"><path d="M-10.26 -69.81 C-6.73 -79.52, -3.19 -89.22, 0 -98 M-10.26 -69.81 C-6.16 -81.08, -2.06 -92.34, 0 -98" stroke="#000000" stroke-width="1" fill="none"></path></g></g><mask></mask></svg>