<svg version="1.1" xmlns="http://www.w3.org/2000/svg" viewBox="0 0 769 320" width="769" height="320">
  <!-- svg-source:excalidraw -->
  
  <defs>
    <style class="style-fonts">
      @font-face {
        font-family: "Virgil";
        src: url("https://excalidraw.com/Virgil.woff2");
      }
      @font-face {
        font-family: "Cascadia";
        src: url("https://excalidraw.com/Cascadia.woff2");
      }
    </style>
  </defs>
  <g stroke-linecap="round" transform="translate(210 10) rotate(0 131 29)"><path d="M0 0 C78.32 0, 156.65 0, 262 0 M0 0 C70.59 0, 141.18 0, 262 0 M262 0 C262 14.34, 262 28.68, 262 58 M262 0 C262 20.34, 262 40.69, 262 58 M262 58 C187.55 58, 113.11 58, 0 58 M262 58 C182.85 58, 103.7 58, 0 58 M0 58 C0 38.87, 0 19.74, 0 0 M0 58 C0 43.57, 0 29.14, 0 0" stroke="#000000" stroke-width="1" fill="none"></path></g><g stroke-linecap="round" transform="translate(210 126) rotate(0 131 29)"><path d="M0 0 C72.56 0, 145.11 0, 262 0 M0 0 C65.59 0, 131.17 0, 262 0 M262 0 C262 13.94, 262 27.88, 262 58 M262 0 C262 14.69, 262 29.38, 262 58 M262 58 C206.02 58, 150.04 58, 0 58 M262 58 C173.67 58, 85.34 58, 0 58 M0 58 C0 36, 0 13.99, 0 0 M0 58 C0 37.94, 0 17.88, 0 0" stroke="#000000" stroke-width="1" fill="none"></path></g><g stroke-linecap="round" transform="translate(210 252) rotate(0 131 29)"><path d="M0 0 C88.33 0, 176.66 0, 262 0 M0 0 C99.39 0, 198.79 0, 262 0 M262 0 C262 20.06, 262 40.12, 262 58 M262 0 C262 22.2, 262 44.39, 262 58 M262 58 C162.6 58, 63.2 58, 0 58 M262 58 C158.68 58, 55.35 58, 0 58 M0 58 C0 38.81, 0 19.63, 0 0 M0 58 C0 36.37, 0 14.75, 0 0" stroke="#000000" stroke-width="1" fill="none"></path></g><g stroke-linecap="round"><g transform="translate(10 39) rotate(0 99.5 0)"><path d="M0 0 C52.08 0, 104.16 0, 199 0 M0 0 C61.43 0, 122.87 0, 199 0" stroke="#000000" stroke-width="1" fill="none"></path></g><g transform="translate(10 39) rotate(0 99.5 0)"><path d="M170.81 10.26 C178.19 7.58, 185.56 4.89, 199 0 M170.81 10.26 C179.51 7.09, 188.21 3.93, 199 0" stroke="#000000" stroke-width="1" fill="none"></path></g><g transform="translate(10 39) rotate(0 99.5 0)"><path d="M170.81 -10.26 C178.19 -7.58, 185.56 -4.89, 199 0 M170.81 -10.26 C179.51 -7.09, 188.21 -3.93, 199 0" stroke="#000000" stroke-width="1" fill="none"></path></g></g><mask></mask><g stroke-linecap="round"><g transform="translate(473 38) rotate(0 143 0)"><path d="M0 0 C62.08 0, 124.16 0, 286 0 M0 0 C97.31 0, 194.63 0, 286 0" stroke="#000000" stroke-width="1" fill="none"></path></g><g transform="translate(473 38) rotate(0 143 0)"><path d="M257.81 10.26 C263.93 8.03, 270.05 5.81, 286 0 M257.81 10.26 C267.4 6.77, 276.99 3.28, 286 0" stroke="#000000" stroke-width="1" fill="none"></path></g><g transform="translate(473 38) rotate(0 143 0)"><path d="M257.81 -10.26 C263.93 -8.03, 270.05 -5.81, 286 0 M257.81 -10.26 C267.4 -6.77, 276.99 -3.28, 286 0" stroke="#000000" stroke-width="1" fill="none"></path></g></g><mask></mask><g stroke-linecap="round"><g transform="translate(94 40) rotate(0 0 121)"><path d="M0 0 C0 56.69, 0 113.38, 0 242 M0 0 C0 84.59, 0 169.18, 0 242" stroke="#000000" stroke-width="1" fill="none"></path></g></g><mask></mask><g stroke-linecap="round"><g transform="translate(93 282) rotate(0 58.5 0)"><path d="M0 0 C29.67 0, 59.33 0, 117 0 M0 0 C35.65 0, 71.3 0, 117 0" stroke="#000000" stroke-width="1" fill="none"></path></g><g transform="translate(93 282) rotate(0 58.5 0)"><path d="M88.81 10.26 C95.96 7.66, 103.1 5.06, 117 0 M88.81 10.26 C97.4 7.13, 105.99 4.01, 117 0" stroke="#000000" stroke-width="1" fill="none"></path></g><g transform="translate(93 282) rotate(0 58.5 0)"><path d="M88.81 -10.26 C95.96 -7.66, 103.1 -5.06, 117 0 M88.81 -10.26 C97.4 -7.13, 105.99 -4.01, 117 0" stroke="#000000" stroke-width="1" fill="none"></path></g></g><mask></mask><g stroke-linecap="round"><g transform="translate(94 154) rotate(0 58 0)"><path d="M0 0 C0 0, 0 0, 0 0 M0 0 C0 0, 0 0, 0 0 M0 0 C31.78 0, 63.55 0, 116 0 M0 0 C42.78 0, 85.56 0, 116 0" stroke="#000000" stroke-width="1" fill="none"></path></g><g transform="translate(94 154) rotate(0 58 0)"><path d="M87.81 10.26 C97.33 6.8, 106.85 3.33, 116 0 M87.81 10.26 C98.73 6.29, 109.65 2.31, 116 0" stroke="#000000" stroke-width="1" fill="none"></path></g><g transform="translate(94 154) rotate(0 58 0)"><path d="M87.81 -10.26 C97.33 -6.8, 106.85 -3.33, 116 0 M87.81 -10.26 C98.73 -6.29, 109.65 -2.31, 116 0" stroke="#000000" stroke-width="1" fill="none"></path></g></g><mask></mask><g stroke-linecap="round"><g transform="translate(472 281) rotate(0 54 0)"><path d="M0 0 C33.83 0, 67.66 0, 108 0 M0 0 C34.61 0, 69.22 0, 108 0" stroke="#000000" stroke-width="1" fill="none"></path></g></g><mask></mask><g stroke-linecap="round"><g transform="translate(580 281) rotate(0 0 -121)"><path d="M0 0 C0 -62.66, 0 -125.32, 0 -242 M0 0 C0 -79.2, 0 -158.4, 0 -242" stroke="#000000" stroke-width="1" fill="none"></path></g><g transform="translate(580 281) rotate(0 0 -121)"><path d="M10.26 -213.81 C7.6 -221.11, 4.95 -228.41, 0 -242 M10.26 -213.81 C6.9 -223.04, 3.54 -232.26, 0 -242" stroke="#000000" stroke-width="1" fill="none"></path></g><g transform="translate(580 281) rotate(0 0 -121)"><path d="M-10.26 -213.81 C-7.6 -221.11, -4.95 -228.41, 0 -242 M-10.26 -213.81 C-6.9 -223.04, -3.54 -232.26, 0 -242" stroke="#000000" stroke-width="1" fill="none"></path></g></g><mask></mask><g stroke-linecap="round"><g transform="translate(472 156) rotate(0 54 0)"><path d="M0 0 C21.84 0, 43.69 0, 108 0 M0 0 C39.62 0, 79.24 0, 108 0" stroke="#000000" stroke-width="1" fill="none"></path></g></g><mask></mask></svg>