<svg version="1.1" xmlns="http://www.w3.org/2000/svg" viewBox="0 0 1281 207.5" width="1281" height="207.5">
  <!-- svg-source:excalidraw -->
  
  <defs>
    <style class="style-fonts">
      @font-face {
        font-family: "Virgil";
        src: url("https://excalidraw.com/Virgil.woff2");
      }
      @font-face {
        font-family: "Cascadia";
        src: url("https://excalidraw.com/Cascadia.woff2");
      }
    </style>
  </defs>
  <g transform="translate(26 23) rotate(0 100.5 12.5)"><text x="0" y="20" font-family="Cascadia, Segoe UI Emoji" font-size="20px" fill="#000000" text-anchor="start" style="white-space: pre;" direction="ltr">Syntaxdiagramm 2:</text></g><g stroke-linecap="round"><g transform="translate(10 44) rotate(0 178 0)"><path d="M0 0 C104.63 0, 209.27 0, 356 0 M0 0 C120.74 0, 241.49 0, 356 0" stroke="#000000" stroke-width="1" fill="none"></path></g><g transform="translate(10 44) rotate(0 178 0)"><path d="M327.81 10.26 C336.09 7.24, 344.38 4.23, 356 0 M327.81 10.26 C337.37 6.78, 346.93 3.3, 356 0" stroke="#000000" stroke-width="1" fill="none"></path></g><g transform="translate(10 44) rotate(0 178 0)"><path d="M327.81 -10.26 C336.09 -7.24, 344.38 -4.23, 356 0 M327.81 -10.26 C337.37 -6.78, 346.93 -3.3, 356 0" stroke="#000000" stroke-width="1" fill="none"></path></g></g><mask></mask><g transform="translate(365 32.5) rotate(0 76 10)"><text x="0" y="16" font-family="Cascadia, Segoe UI Emoji" font-size="16px" fill="#000000" text-anchor="start" style="white-space: pre;" direction="ltr">Syntaxdiagramm 1</text></g><g stroke-linecap="round" transform="translate(366 10) rotate(0 119.5 33)"><path d="M0 0 C91.21 0, 182.41 0, 239 0 M0 0 C61.34 0, 122.68 0, 239 0 M239 0 C239 13.51, 239 27.01, 239 66 M239 0 C239 17.51, 239 35.03, 239 66 M239 66 C172.68 66, 106.35 66, 0 66 M239 66 C175.08 66, 111.16 66, 0 66 M0 66 C0 40.23, 0 14.46, 0 0 M0 66 C0 47.91, 0 29.82, 0 0" stroke="#000000" stroke-width="1" fill="none"></path></g><g stroke-linecap="round"><g transform="translate(605 42) rotate(0 91.5 0)"><path d="M0 0 C51.49 0, 102.97 0, 183 0 M0 0 C67.15 0, 134.29 0, 183 0" stroke="#000000" stroke-width="1" fill="none"></path></g><g transform="translate(605 42) rotate(0 91.5 0)"><path d="M154.81 10.26 C162.74 7.37, 170.67 4.49, 183 0 M154.81 10.26 C165.15 6.5, 175.5 2.73, 183 0" stroke="#000000" stroke-width="1" fill="none"></path></g><g transform="translate(605 42) rotate(0 91.5 0)"><path d="M154.81 -10.26 C162.74 -7.37, 170.67 -4.49, 183 0 M154.81 -10.26 C165.15 -6.5, 175.5 -2.73, 183 0" stroke="#000000" stroke-width="1" fill="none"></path></g></g><mask></mask><g stroke-linecap="round" transform="translate(791 10) rotate(0 112 31.5)"><path d="M0 0 C72.07 0, 144.14 0, 224 0 M0 0 C79.37 0, 158.74 0, 224 0 M224 0 C224 18.17, 224 36.33, 224 63 M224 0 C224 15.57, 224 31.14, 224 63 M224 63 C173.38 63, 122.77 63, 0 63 M224 63 C166.99 63, 109.98 63, 0 63 M0 63 C0 48.86, 0 34.73, 0 0 M0 63 C0 39.73, 0 16.46, 0 0" stroke="#000000" stroke-width="1" fill="none"></path></g><g stroke-linecap="round" transform="translate(791 134.5) rotate(0 112 31.5)"><path d="M0 0 C87.67 0, 175.33 0, 224 0 M0 0 C83.85 0, 167.71 0, 224 0 M224 0 C224 20.63, 224 41.27, 224 63 M224 0 C224 17.23, 224 34.46, 224 63 M224 63 C140.49 63, 56.98 63, 0 63 M224 63 C148.6 63, 73.21 63, 0 63 M0 63 C0 49.63, 0 36.27, 0 0 M0 63 C0 48.09, 0 33.18, 0 0" stroke="#000000" stroke-width="1" fill="none"></path></g><g stroke-linecap="round"><g transform="translate(689 42) rotate(0 0 62.5)"><path d="M0 0 C0 47.86, 0 95.73, 0 125 M0 0 C0 29.4, 0 58.79, 0 125" stroke="#000000" stroke-width="1" fill="none"></path></g></g><mask></mask><g stroke-linecap="round"><g transform="translate(690 166) rotate(0 51 0)"><path d="M0 0 C39.33 0, 78.67 0, 102 0 M0 0 C29.78 0, 59.57 0, 102 0" stroke="#000000" stroke-width="1" fill="none"></path></g><g transform="translate(690 166) rotate(0 51 0)"><path d="M73.81 10.26 C84.68 6.3, 95.55 2.35, 102 0 M73.81 10.26 C82.04 7.26, 90.27 4.27, 102 0" stroke="#000000" stroke-width="1" fill="none"></path></g><g transform="translate(690 166) rotate(0 51 0)"><path d="M73.81 -10.26 C84.68 -6.3, 95.55 -2.35, 102 0 M73.81 -10.26 C82.04 -7.26, 90.27 -4.27, 102 0" stroke="#000000" stroke-width="1" fill="none"></path></g></g><mask></mask><g stroke-linecap="round"><g transform="translate(1016 42) rotate(0 127.5 0)"><path d="M0 0 C78.11 0, 156.22 0, 255 0 M0 0 C80.68 0, 161.37 0, 255 0" stroke="#000000" stroke-width="1" fill="none"></path></g><g transform="translate(1016 42) rotate(0 127.5 0)"><path d="M226.81 10.26 C235.44 7.12, 244.08 3.97, 255 0 M226.81 10.26 C235.73 7.01, 244.65 3.77, 255 0" stroke="#000000" stroke-width="1" fill="none"></path></g><g transform="translate(1016 42) rotate(0 127.5 0)"><path d="M226.81 -10.26 C235.44 -7.12, 244.08 -3.97, 255 0 M226.81 -10.26 C235.73 -7.01, 244.65 -3.77, 255 0" stroke="#000000" stroke-width="1" fill="none"></path></g></g><mask></mask><g stroke-linecap="round"><g transform="translate(1015 168) rotate(0 64.5 0)"><path d="M0 0 C35.8 0, 71.59 0, 129 0 M0 0 C38.09 0, 76.17 0, 129 0" stroke="#000000" stroke-width="1" fill="none"></path></g></g><mask></mask><g stroke-linecap="round"><g transform="translate(1146 168) rotate(0 0 -63)"><path d="M0 0 C0 -44.07, 0 -88.14, 0 -126 M0 0 C0 -40.63, 0 -81.26, 0 -126" stroke="#000000" stroke-width="1" fill="none"></path></g><g transform="translate(1146 168) rotate(0 0 -63)"><path d="M10.26 -97.81 C6.67 -107.67, 3.08 -117.53, 0 -126 M10.26 -97.81 C6.95 -106.9, 3.64 -115.99, 0 -126" stroke="#000000" stroke-width="1" fill="none"></path></g><g transform="translate(1146 168) rotate(0 0 -63)"><path d="M-10.26 -97.81 C-6.67 -107.67, -3.08 -117.53, 0 -126 M-10.26 -97.81 C-6.95 -106.9, -3.64 -115.99, 0 -126" stroke="#000000" stroke-width="1" fill="none"></path></g></g><mask></mask></svg>