<svg version="1.1" xmlns="http://www.w3.org/2000/svg" viewBox="0 0 1353.5 95.5" width="1353.5" height="95.5">
  <!-- svg-source:excalidraw -->
  
  <defs>
    <style class="style-fonts">
      @font-face {
        font-family: "Virgil";
        src: url("https://excalidraw.com/Virgil.woff2");
      }
      @font-face {
        font-family: "Cascadia";
        src: url("https://excalidraw.com/Cascadia.woff2");
      }
    </style>
  </defs>
  <g stroke-linecap="round" transform="translate(285 10.5) rotate(0 136 37.5)"><path d="M0 0 C75.73 0, 151.45 0, 272 0 M0 0 C72.25 0, 144.49 0, 272 0 M272 0 C272 28.05, 272 56.11, 272 75 M272 0 C272 21.31, 272 42.63, 272 75 M272 75 C192.99 75, 113.97 75, 0 75 M272 75 C169.08 75, 66.17 75, 0 75 M0 75 C0 55.38, 0 35.75, 0 0 M0 75 C0 58.83, 0 42.67, 0 0" stroke="#000000" stroke-width="1" fill="none"></path></g><g stroke-linecap="round" transform="translate(796 10) rotate(0 136 37.5)"><path d="M0 0 C72.33 0, 144.66 0, 272 0 M0 0 C89.95 0, 179.9 0, 272 0 M272 0 C272 22.76, 272 45.53, 272 75 M272 0 C272 28.85, 272 57.7, 272 75 M272 75 C186.39 75, 100.78 75, 0 75 M272 75 C195.22 75, 118.43 75, 0 75 M0 75 C0 49.14, 0 23.27, 0 0 M0 75 C0 50.75, 0 26.49, 0 0" stroke="#000000" stroke-width="1" fill="none"></path></g><g stroke-linecap="round"><g transform="translate(10 47.5) rotate(0 137.5 0)"><path d="M0 0 C96.09 0, 192.18 0, 275 0 M0 0 C102.88 0, 205.76 0, 275 0" stroke="#000000" stroke-width="1" fill="none"></path></g><g transform="translate(10 47.5) rotate(0 137.5 0)"><path d="M246.81 10.26 C256.66 6.68, 266.51 3.09, 275 0 M246.81 10.26 C257.36 6.42, 267.9 2.58, 275 0" stroke="#000000" stroke-width="1" fill="none"></path></g><g transform="translate(10 47.5) rotate(0 137.5 0)"><path d="M246.81 -10.26 C256.66 -6.68, 266.51 -3.09, 275 0 M246.81 -10.26 C257.36 -6.42, 267.9 -2.58, 275 0" stroke="#000000" stroke-width="1" fill="none"></path></g></g><mask></mask><g stroke-linecap="round"><g transform="translate(558 49.22544583798418) rotate(0 118.5 -0.10884258808090408)"><path d="M0 0 C82.86 -0.08, 165.72 -0.15, 237 -0.22 M0 0 C92.7 -0.09, 185.4 -0.17, 237 -0.22" stroke="#000000" stroke-width="1" fill="none"></path></g><g transform="translate(558 49.22544583798418) rotate(0 118.5 -0.10884258808090408)"><path d="M208.82 10.07 C218.67 6.47, 228.52 2.88, 237 -0.22 M208.82 10.07 C219.84 6.05, 230.86 2.02, 237 -0.22" stroke="#000000" stroke-width="1" fill="none"></path></g><g transform="translate(558 49.22544583798418) rotate(0 118.5 -0.10884258808090408)"><path d="M208.8 -10.45 C218.66 -6.87, 228.52 -3.3, 237 -0.22 M208.8 -10.45 C219.83 -6.45, 230.86 -2.45, 237 -0.22" stroke="#000000" stroke-width="1" fill="none"></path></g></g><mask></mask><g stroke-linecap="round"><g transform="translate(1068.5 48.5) rotate(0 137.5 0)"><path d="M0 0 C102.65 0, 205.3 0, 275 0 M0 0 C68.25 0, 136.49 0, 275 0" stroke="#000000" stroke-width="1" fill="none"></path></g><g transform="translate(1068.5 48.5) rotate(0 137.5 0)"><path d="M246.81 10.26 C257.33 6.43, 267.86 2.6, 275 0 M246.81 10.26 C253.81 7.71, 260.8 5.17, 275 0" stroke="#000000" stroke-width="1" fill="none"></path></g><g transform="translate(1068.5 48.5) rotate(0 137.5 0)"><path d="M246.81 -10.26 C257.33 -6.43, 267.86 -2.6, 275 0 M246.81 -10.26 C253.81 -7.71, 260.8 -5.17, 275 0" stroke="#000000" stroke-width="1" fill="none"></path></g></g><mask></mask></svg>