<svg version="1.1" xmlns="http://www.w3.org/2000/svg" viewBox="0 0 1179.184085351773 344.3132193811299" width="1179.184085351773" height="344.3132193811299">
  <!-- svg-source:excalidraw -->
  
  <defs>
    <style class="style-fonts">
      @font-face {
        font-family: "Virgil";
        src: url("https://excalidraw.com/Virgil.woff2");
      }
      @font-face {
        font-family: "Cascadia";
        src: url("https://excalidraw.com/Cascadia.woff2");
      }
    </style>
  </defs>
  <g stroke-linecap="round" transform="translate(10.227752886100006 10) rotate(0 222.96533832452673 162.15660969056495)"><path d="M0 0 C156.97 0, 313.93 0, 445.93 0 M0 0 C154.33 0, 308.66 0, 445.93 0 M445.93 0 C445.93 80.33, 445.93 160.67, 445.93 324.31 M445.93 0 C445.93 105.52, 445.93 211.04, 445.93 324.31 M445.93 324.31 C342.65 324.31, 239.37 324.31, 0 324.31 M445.93 324.31 C278.2 324.31, 110.46 324.31, 0 324.31 M0 324.31 C0 224.76, 0 125.2, 0 0 M0 324.31 C0 208.46, 0 92.6, 0 0" stroke="#000000" stroke-width="1" fill="none"></path></g><g stroke-linecap="round"><g transform="translate(10 91.0783048452825) rotate(0 222.82341160784972 0)"><path d="M0 0 C95.22 0, 190.44 0, 445.65 0 M0 0 C158.48 0, 316.96 0, 445.65 0" stroke="#000000" stroke-width="1" fill="none"></path></g></g><mask></mask><g stroke-linecap="round"><g transform="translate(10.227752886099779 209.17061842428097) rotate(0 222.82341160784972 0)"><path d="M0 0 C120.17 0, 240.34 0, 445.65 0 M0 0 C145.66 0, 291.31 0, 445.65 0" stroke="#000000" stroke-width="1" fill="none"></path></g></g><mask></mask><g transform="translate(149.26911998603657 34.547168293477796) rotate(0 99.9625015258789 18.600669282172674)"><text x="0" y="0" font-family="Cascadia, Segoe UI Emoji" font-size="31.001115470287807px" fill="#000000" text-anchor="start" style="white-space: pre;" direction="ltr" dominant-baseline="text-before-edge">ErsteKlasse</text></g><g transform="translate(40.870178462573676 226.4253775109645) rotate(0 108.9375 14.880535425738145)"><text x="0" y="0" font-family="Cascadia, Segoe UI Emoji" font-size="24.80089237623024px" fill="#000000" text-anchor="start" style="white-space: pre;" direction="ltr" dominant-baseline="text-before-edge">+ ErsteKlasse()</text></g><g stroke-linecap="round" transform="translate(723.2534087027195 10) rotate(0 222.96533832452678 162.15660969056495)"><path d="M0 0 C110.03 0, 220.06 0, 445.93 0 M0 0 C96.27 0, 192.55 0, 445.93 0 M445.93 0 C445.93 111.19, 445.93 222.39, 445.93 324.31 M445.93 0 C445.93 124.44, 445.93 248.87, 445.93 324.31 M445.93 324.31 C308.62 324.31, 171.32 324.31, 0 324.31 M445.93 324.31 C289.3 324.31, 132.67 324.31, 0 324.31 M0 324.31 C0 242.91, 0 161.51, 0 0 M0 324.31 C0 250.42, 0 176.53, 0 0" stroke="#000000" stroke-width="1" fill="none"></path></g><g stroke-linecap="round"><g transform="translate(723.0256558166194 91.07830484528256) rotate(0 222.82341160784966 0)"><path d="M0 0 C176.66 0, 353.33 0, 445.65 0 M0 0 C100.32 0, 200.64 0, 445.65 0" stroke="#000000" stroke-width="1" fill="none"></path></g></g><mask></mask><g stroke-linecap="round"><g transform="translate(723.2534087027195 209.17061842428103) rotate(0 222.82341160784972 0)"><path d="M0 0 C150.48 0, 300.96 0, 445.65 0 M0 0 C166.57 0, 333.13 0, 445.65 0" stroke="#000000" stroke-width="1" fill="none"></path></g></g><mask></mask><g transform="translate(862.2947758026562 34.547168293477796) rotate(0 109.05000305175781 18.600669282172674)"><text x="0" y="0" font-family="Cascadia, Segoe UI Emoji" font-size="31.0011154702878px" fill="#000000" text-anchor="start" style="white-space: pre;" direction="ltr" dominant-baseline="text-before-edge">ZweiteKlasse</text></g><g transform="translate(753.8958342791934 225.30803369653347) rotate(0 116.19999694824219 14.880535425738145)"><text x="0" y="0" font-family="Cascadia, Segoe UI Emoji" font-size="24.80089237623024px" fill="#000000" text-anchor="start" style="white-space: pre;" direction="ltr" dominant-baseline="text-before-edge">+ ZweiteKlasse()</text></g><g stroke-linecap="round"><g transform="translate(723.0256558166194 165.005577351439) rotate(0 -132.95336992401616 -0.15773848889034525)"><path d="M0 0 C-57.85 -0.07, -115.7 -0.14, -265.91 -0.32 M0 0 C-92.69 -0.11, -185.38 -0.22, -265.91 -0.32" stroke="#000000" stroke-width="1" fill="none"></path></g></g><mask></mask><g stroke-linecap="round"><g transform="translate(456.0178978371871 165.0883517049091) rotate(0 24.999974843708856 -15.541944911878943)"><path d="M0 0 C15.89 -9.88, 31.77 -19.75, 50 -31.08 M0 0 C12.34 -7.67, 24.68 -15.34, 50 -31.08" stroke="#000000" stroke-width="1" fill="none"></path></g></g><mask></mask><g stroke-linecap="round"><g transform="translate(455.9785427869167 165.005577351439) rotate(0 25.01965236884405 15.5005577351439)"><path d="M0 0 C19.82 12.28, 39.65 24.56, 50.04 31 M0 0 C10.68 6.62, 21.36 13.23, 50.04 31" stroke="#000000" stroke-width="1" fill="none"></path></g></g><mask></mask><g transform="translate(535.0889524354976 136.35303187302088) rotate(0 75 9.599999999999994)"><text x="0" y="0" font-family="Cascadia, Segoe UI Emoji" font-size="16px" fill="#000000" text-anchor="start" style="white-space: pre;" direction="ltr" dominant-baseline="text-before-edge">+ erstesAttribut 1</text></g></svg>
