<svg version="1.1" xmlns="http://www.w3.org/2000/svg" viewBox="0 0 1121.7929046408447 308.6345696871316" width="1121.7929046408447" height="308.6345696871316">
  <!-- svg-source:excalidraw -->
  
  <defs>
    <style class="style-fonts">
      @font-face {
        font-family: "Virgil";
        src: url("https://excalidraw.com/Virgil.woff2");
      }
      @font-face {
        font-family: "Cascadia";
        src: url("https://excalidraw.com/Cascadia.woff2");
      }
    </style>
  </defs>
  <g stroke-linecap="round" transform="translate(526.0465412899732 57.21321447597833) rotate(0 249.33459079086805 98.36969714998204)"><path d="M0 0 C123.04 0, 246.09 0, 498.67 0 M0 0 C107.66 0, 215.32 0, 498.67 0 M498.67 0 C498.67 67.45, 498.67 134.91, 498.67 196.74 M498.67 0 C498.67 75.49, 498.67 150.98, 498.67 196.74 M498.67 196.74 C345.12 196.74, 191.58 196.74, 0 196.74 M498.67 196.74 C323.52 196.74, 148.37 196.74, 0 196.74 M0 196.74 C0 147.36, 0 97.98, 0 0 M0 196.74 C0 151.91, 0 107.09, 0 0" stroke="#000000" stroke-width="1" fill="none"></path></g><g stroke-linecap="round"><g transform="translate(527.1291632548291 138.2915193212609) rotate(0 248.70331491422837 -0.6551874254779477)"><path d="M0 0 C197.18 -0.52, 394.37 -1.04, 497.41 -1.31 M0 0 C111.97 -0.29, 223.95 -0.59, 497.41 -1.31" stroke="#000000" stroke-width="1" fill="none"></path></g></g><mask></mask><g transform="translate(615.7305657915756 84.84521668185201) rotate(0 118.13749694824213 18.600669282172674)"><text x="0" y="0" font-family="Cascadia, Segoe UI Emoji" font-size="31.0011154702878px" fill="#000000" text-anchor="start" style="white-space: pre;" direction="ltr" dominant-baseline="text-before-edge">&lt;interface&gt; X</text></g><g transform="translate(543.8023575202535 156.63107349475544) rotate(0 79.88749694824219 14.880535425738145)"><text x="0" y="0" font-family="Cascadia, Segoe UI Emoji" font-size="24.80089237623024px" fill="#000000" text-anchor="start" style="white-space: pre;" direction="ltr" dominant-baseline="text-before-edge">+ gibWert()</text></g><g stroke-linecap="round"><g transform="translate(474.4824677621039 168.44218577174453) rotate(0 -82.43240300224335 0.18457803235855863)"><path d="M0 0 C-35.87 0.08, -71.73 0.16, -164.86 0.37" stroke="#000000" stroke-width="1.5" fill="none" stroke-dasharray="8 9"></path></g></g><mask></mask><g stroke-linecap="round"><g transform="translate(475.971684997164 200.09637273849344) rotate(179.94271561521268 24.9999748437088 -15.541944911878943)"><path d="M0 0 C15.89 -9.88, 31.77 -19.75, 50 -31.08 M0 0 C12.34 -7.67, 24.68 -15.34, 50 -31.08" stroke="#000000" stroke-width="1" fill="none"></path></g></g><mask></mask><g stroke-linecap="round"><g transform="translate(475.9407314213228 138.09413759801586) rotate(179.94271561521268 25.01965236884405 15.5005577351439)"><path d="M0 0 C19.82 12.28, 39.65 24.56, 50.04 31 M0 0 C10.68 6.62, 21.36 13.23, 50.04 31" stroke="#000000" stroke-width="1" fill="none"></path></g></g><mask></mask><g stroke-linecap="round" transform="translate(10.227752886100461 25.654373337172075) rotate(0 149.6128760916209 136.49009817497975)"><path d="M0 0 C117.34 0, 234.67 0, 299.23 0 M0 0 C62.39 0, 124.79 0, 299.23 0 M299.23 0 C299.23 109.01, 299.23 218.03, 299.23 272.98 M299.23 0 C299.23 60.67, 299.23 121.33, 299.23 272.98 M299.23 272.98 C206.24 272.98, 113.26 272.98, 0 272.98 M299.23 272.98 C200.37 272.98, 101.52 272.98, 0 272.98 M0 272.98 C0 172.67, 0 72.35, 0 0 M0 272.98 C0 198.58, 0 124.18, 0 0" stroke="#000000" stroke-width="1" fill="none"></path></g><g stroke-linecap="round"><g transform="translate(10 106.73267818245475) rotate(0 149.80037884519888 -0.36150016219133363)"><path d="M0 0 C116.61 -0.28, 233.21 -0.56, 299.6 -0.72 M0 0 C102.82 -0.25, 205.65 -0.5, 299.6 -0.72" stroke="#000000" stroke-width="1" fill="none"></path></g></g><mask></mask><g stroke-linecap="round"><g transform="translate(10.227752886100461 224.82499176145316) rotate(0 149.80037884519888 -0.36150016219133363)"><path d="M0 0 C94.3 -0.23, 188.6 -0.46, 299.6 -0.72 M0 0 C118.43 -0.29, 236.85 -0.57, 299.6 -0.72" stroke="#000000" stroke-width="1" fill="none"></path></g></g><mask></mask><g transform="translate(99.91177738770239 53.28637554304581) rotate(0 63.61249923706052 18.600669282172674)"><text x="0" y="0" font-family="Cascadia, Segoe UI Emoji" font-size="31.0011154702878px" fill="#000000" text-anchor="start" style="white-space: pre;" direction="ltr" dominant-baseline="text-before-edge">Rechner</text></g><g transform="translate(40.87017846257413 240.9624070337056) rotate(0 79.88749694824219 14.880535425738145)"><text x="0" y="0" font-family="Cascadia, Segoe UI Emoji" font-size="24.80089237623024px" fill="#000000" text-anchor="start" style="white-space: pre;" direction="ltr" dominant-baseline="text-before-edge">+ Rechner()</text></g><g transform="translate(39.72462780280841 121.35449759448696) rotate(0 94.41249847412112 14.880535425738145)"><text x="0" y="0" font-family="Cascadia, Segoe UI Emoji" font-size="24.80089237623024px" fill="#000000" text-anchor="start" style="white-space: pre;" direction="ltr" dominant-baseline="text-before-edge">+ cpu: String</text></g><g transform="translate(37.80708072321022 163.76138982288566) rotate(0 94.41249847412107 14.880535425738145)"><text x="0" y="0" font-family="Cascadia, Segoe UI Emoji" font-size="24.80089237623024px" fill="#000000" text-anchor="start" style="white-space: pre;" direction="ltr" dominant-baseline="text-before-edge">+ ram: String</text></g><g transform="translate(543.5079663771546 196.68722815268117) rotate(0 232.39999389648438 14.880535425738145)"><text x="0" y="0" font-family="Cascadia, Segoe UI Emoji" font-size="24.80089237623024px" fill="#000000" text-anchor="start" style="white-space: pre;" direction="ltr" dominant-baseline="text-before-edge">+ setWert(pX: ContentType): void</text></g><g stroke-linecap="round"><g transform="translate(474.8716921002314 200.15366153795335) rotate(179.94271561521268 0.23753398956375804 -31.260917006255312)"><path d="M0 0 C0.1 -13.78, 0.21 -27.55, 0.48 -62.52 M0 0 C0.19 -25, 0.38 -49.99, 0.48 -62.52" stroke="#000000" stroke-width="1" fill="none"></path></g></g><mask></mask><g stroke-linecap="round" transform="translate(818.9121512854922 10) rotate(0 146.44037667767623 29.198234613647102)"><path d="M0 0 L292.88 0 L292.88 58.4 L0 58.4" stroke="none" stroke-width="0" fill="#ffffff"></path><path d="M0 0 C80.09 0, 160.18 0, 292.88 0 M292.88 0 C292.88 12.04, 292.88 24.08, 292.88 58.4 M292.88 58.4 C231.69 58.4, 170.49 58.4, 0 58.4 M0 58.4 C0 39.56, 0 20.73, 0 0" stroke="#000000" stroke-width="1.5" fill="none" stroke-dasharray="8 9"></path></g><g transform="translate(844.5198093582817 27.647438223087846) rotate(0 117.25 12)"><text x="0" y="0" font-family="Cascadia, Segoe UI Emoji" font-size="20px" fill="#000000" text-anchor="start" style="white-space: pre;" direction="ltr" dominant-baseline="text-before-edge">ContentType: Rechner</text></g></svg>