<svg version="1.1" xmlns="http://www.w3.org/2000/svg" viewBox="0 0 393.5503927491859 320" width="393.5503927491859" height="320">
  <!-- svg-source:excalidraw -->
  
  <defs>
    <style class="style-fonts">
      @font-face {
        font-family: "Virgil";
        src: url("https://excalidraw.com/Virgil.woff2");
      }
      @font-face {
        font-family: "Cascadia";
        src: url("https://excalidraw.com/Cascadia.woff2");
      }
    </style>
  </defs>
  <g stroke-linecap="round" transform="translate(10.590930941368015 10) rotate(0 186.47973090390894 150)"><path d="M0 0 C120.04 0, 240.09 0, 372.96 0 M0 0 C145.55 0, 291.09 0, 372.96 0 M372.96 0 C372.96 82.88, 372.96 165.75, 372.96 300 M372.96 0 C372.96 95.56, 372.96 191.12, 372.96 300 M372.96 300 C230.74 300, 88.52 300, 0 300 M372.96 300 C279.4 300, 185.84 300, 0 300 M0 300 C0 184.12, 0 68.24, 0 0 M0 300 C0 194.03, 0 88.06, 0 0" stroke="#000000" stroke-width="1" fill="none"></path></g><g stroke-linecap="round"><g transform="translate(11.772792824104272 70) rotate(0 185.81215790369072 0.14387644619765183)"><path d="M0 0 C105.5 0.08, 210.99 0.16, 371.62 0.29 M0 0 C97.33 0.08, 194.66 0.15, 371.62 0.29" stroke="#000000" stroke-width="1" fill="none"></path></g></g><mask></mask><g stroke-linecap="round"><g transform="translate(10 128.63483410423453) rotate(0 186.47973090390872 0)"><path d="M0 0 C76.99 0, 153.97 0, 372.96 0 M0 0 C133.81 0, 267.62 0, 372.96 0" stroke="#000000" stroke-width="1" fill="none"></path></g></g><mask></mask><g transform="translate(140.8837934777115 22.775933061721673) rotate(0 65.59999847412104 16.80000000000001)"><text x="0" y="0" font-family="Cascadia, Segoe UI Emoji" font-size="28px" fill="#000000" text-anchor="start" style="white-space: pre;" direction="ltr" dominant-baseline="text-before-edge">Rechteck</text></g><g transform="translate(22.678256557003124 78.24582600325726) rotate(0 60.9375 9.599999999999994)"><text x="0" y="0" font-family="Cascadia, Segoe UI Emoji" font-size="16px" fill="#000000" text-anchor="start" style="white-space: pre;" direction="ltr" dominant-baseline="text-before-edge">- laenge: int</text></g><g transform="translate(23.197574459283373 102.8109918990229) rotate(0 60.9375 9.599999999999994)"><text x="0" y="0" font-family="Cascadia, Segoe UI Emoji" font-size="16px" fill="#000000" text-anchor="start" style="white-space: pre;" direction="ltr" dominant-baseline="text-before-edge">- breite: int</text></g><g transform="translate(20.24291975244296 140.0396412052117) rotate(0 178.125 9.599999999999994)"><text x="0" y="0" font-family="Cascadia, Segoe UI Emoji" font-size="16px" fill="#000000" text-anchor="start" style="white-space: pre;" direction="ltr" dominant-baseline="text-before-edge">+ Rechteck(pLaenge: int, pBreite: int)</text></g><g transform="translate(18.44112031836005 164.8023909155786) rotate(0 145.31250000000006 9.600000000000023)"><text x="0" y="0" font-family="Cascadia, Segoe UI Emoji" font-size="16px" fill="#000000" text-anchor="start" style="white-space: pre;" direction="ltr" dominant-baseline="text-before-edge">+ setLaenge(pLaenge: int): void</text></g><g transform="translate(18.38468220342213 189.34453137473201) rotate(0 145.31250000000006 9.600000000000023)"><text x="0" y="0" font-family="Cascadia, Segoe UI Emoji" font-size="16px" fill="#000000" text-anchor="start" style="white-space: pre;" direction="ltr" dominant-baseline="text-before-edge">+ setBreite(pBreite: int): void</text></g><g transform="translate(16.193419662426663 215.20142935848276) rotate(0 84.37500000000006 9.600000000000023)"><text x="0" y="0" font-family="Cascadia, Segoe UI Emoji" font-size="16px" fill="#000000" text-anchor="start" style="white-space: pre;" direction="ltr" dominant-baseline="text-before-edge">+ getLaenge(): int</text></g><g transform="translate(15.775568514542783 241.9348323586321) rotate(0 84.375 9.600000000000023)"><text x="0" y="0" font-family="Cascadia, Segoe UI Emoji" font-size="16px" fill="#000000" text-anchor="start" style="white-space: pre;" direction="ltr" dominant-baseline="text-before-edge">+ getBreite(): int</text></g><g transform="translate(15.775568514542783 270.42124539157794) rotate(0 84.375 9.600000000000023)"><text x="0" y="0" font-family="Cascadia, Segoe UI Emoji" font-size="16px" fill="#000000" text-anchor="start" style="white-space: pre;" direction="ltr" dominant-baseline="text-before-edge">+ getUmfang(): int</text></g></svg>