<svg version="1.1" xmlns="http://www.w3.org/2000/svg" viewBox="0 0 767.8337909890774 229.22680649472716" width="767.8337909890774" height="229.22680649472716">
  <!-- svg-source:excalidraw -->
  
  <defs>
    <style class="style-fonts">
      @font-face {
        font-family: "Virgil";
        src: url("https://excalidraw.com/Virgil.woff2");
      }
      @font-face {
        font-family: "Cascadia";
        src: url("https://excalidraw.com/Cascadia.woff2");
      }
    </style>
  </defs>
  <g stroke-linecap="round" transform="translate(10.146932058827588 10) rotate(0 143.84342946512487 104.61340324736358)"><path d="M0 0 C101.27 0, 202.53 0, 287.69 0 M0 0 C99.56 0, 199.13 0, 287.69 0 M287.69 0 C287.69 51.83, 287.69 103.65, 287.69 209.23 M287.69 0 C287.69 68.07, 287.69 136.15, 287.69 209.23 M287.69 209.23 C221.06 209.23, 154.43 209.23, 0 209.23 M287.69 209.23 C179.48 209.23, 71.26 209.23, 0 209.23 M0 209.23 C0 145, 0 80.77, 0 0 M0 209.23 C0 134.48, 0 59.74, 0 0" stroke="#000000" stroke-width="1" fill="none"></path></g><g stroke-linecap="round"><g transform="translate(10 62.30670162368182) rotate(0 143.75186713614153 0)"><path d="M0 0 C61.43 0, 122.86 0, 287.5 0 M0 0 C102.24 0, 204.48 0, 287.5 0" stroke="#000000" stroke-width="1" fill="none"></path></g></g><mask></mask><g stroke-linecap="round"><g transform="translate(10.146932058827474 138.49254964078358) rotate(0 143.75186713614153 0)"><path d="M0 0 C77.53 0, 155.05 0, 287.5 0 M0 0 C93.97 0, 187.94 0, 287.5 0" stroke="#000000" stroke-width="1" fill="none"></path></g></g><mask></mask><g transform="translate(99.84781216631734 25.836312933322915) rotate(0 58.625 12)"><text x="0" y="0" font-family="Cascadia, Segoe UI Emoji" font-size="20px" fill="#000000" text-anchor="start" style="white-space: pre;" direction="ltr" dominant-baseline="text-before-edge">Oberklasse</text></g><g transform="translate(29.915527550717 149.6242517262914) rotate(0 65.625 9.599999999999994)"><text x="0" y="0" font-family="Cascadia, Segoe UI Emoji" font-size="16px" fill="#000000" text-anchor="start" style="white-space: pre;" direction="ltr" dominant-baseline="text-before-edge">+ Oberklasse()</text></g><g stroke-linecap="round" transform="translate(470.1469320588276 10) rotate(0 143.84342946512493 104.61340324736358)"><path d="M0 0 C70.99 0, 141.97 0, 287.69 0 M0 0 C62.11 0, 124.22 0, 287.69 0 M287.69 0 C287.69 71.73, 287.69 143.47, 287.69 209.23 M287.69 0 C287.69 80.28, 287.69 160.56, 287.69 209.23 M287.69 209.23 C199.11 209.23, 110.52 209.23, 0 209.23 M287.69 209.23 C186.64 209.23, 85.59 209.23, 0 209.23 M0 209.23 C0 156.71, 0 104.2, 0 0 M0 209.23 C0 161.56, 0 113.89, 0 0" stroke="#000000" stroke-width="1" fill="none"></path></g><g stroke-linecap="round"><g transform="translate(470 62.306701623681874) rotate(0 143.75186713614153 0)"><path d="M0 0 C113.97 0, 227.95 0, 287.5 0 M0 0 C64.72 0, 129.44 0, 287.5 0" stroke="#000000" stroke-width="1" fill="none"></path></g></g><mask></mask><g stroke-linecap="round"><g transform="translate(470.1469320588276 138.49254964078364) rotate(0 143.75186713614153 0)"><path d="M0 0 C97.08 0, 194.16 0, 287.5 0 M0 0 C107.46 0, 214.92 0, 287.5 0" stroke="#000000" stroke-width="1" fill="none"></path></g></g><mask></mask><g transform="translate(559.8478121663175 25.836312933322915) rotate(0 64.48750305175781 12)"><text x="0" y="0" font-family="Cascadia, Segoe UI Emoji" font-size="20px" fill="#000000" text-anchor="start" style="white-space: pre;" direction="ltr" dominant-baseline="text-before-edge">Unterklasse</text></g><g transform="translate(489.9155275507171 149.6242517262914) rotate(0 70.3125 9.599999999999994)"><text x="0" y="0" font-family="Cascadia, Segoe UI Emoji" font-size="16px" fill="#000000" text-anchor="start" style="white-space: pre;" direction="ltr" dominant-baseline="text-before-edge">+ Unterklasse()</text></g><g stroke-linecap="round"><g transform="translate(470 110) rotate(0 -70 0)"><path d="M0 0 C-30.46 0, -60.91 0, -140 0 M0 0 C-48.8 0, -97.6 0, -140 0" stroke="#000000" stroke-width="1" fill="none"></path></g></g><mask></mask><g stroke-linecap="round"><g transform="translate(330.55656799605924 90) rotate(0 -0.27828399802962167 20)"><path d="M0 0 C-0.17 12.1, -0.34 24.2, -0.56 40 M0 0 C-0.14 9.82, -0.27 19.64, -0.56 40" stroke="#000000" stroke-width="1" fill="none"></path></g></g><mask></mask><g stroke-linecap="round"><g transform="translate(297.7431286397815 110.05340088717094) rotate(0 16.12843568010925 -10.026700443585469)"><path d="M0 0 C10.25 -6.37, 20.5 -12.74, 32.26 -20.05 M0 0 C7.96 -4.95, 15.92 -9.9, 32.26 -20.05" stroke="#000000" stroke-width="1" fill="none"></path></g></g><mask></mask><g stroke-linecap="round"><g transform="translate(297.71773919835437 110) rotate(0 16.141130400822817 10)"><path d="M0 0 C12.79 7.92, 25.58 15.85, 32.28 20 M0 0 C6.89 4.27, 13.78 8.54, 32.28 20" stroke="#000000" stroke-width="1" fill="none"></path></g></g><mask></mask></svg>