<svg version="1.1" xmlns="http://www.w3.org/2000/svg" viewBox="0 0 1122.536957077035 611.178479400219" width="1122.536957077035" height="611.178479400219">
  <!-- svg-source:excalidraw -->
  
  <defs>
    <style class="style-fonts">
      @font-face {
        font-family: "Virgil";
        src: url("https://excalidraw.com/Virgil.woff2");
      }
      @font-face {
        font-family: "Cascadia";
        src: url("https://excalidraw.com/Cascadia.woff2");
      }
    </style>
  </defs>
  <g stroke-linecap="round" transform="translate(180.5879733143504 397.89916394038903) rotate(0 109.34148137696224 35.68649774924768)"><path d="M0 0 C76.98 0, 153.95 0, 218.68 0 M0 0 C75.68 0, 151.36 0, 218.68 0 M218.68 0 C218.68 17.68, 218.68 35.36, 218.68 71.37 M218.68 0 C218.68 23.22, 218.68 46.44, 218.68 71.37 M218.68 71.37 C168.04 71.37, 117.39 71.37, 0 71.37 M218.68 71.37 C136.43 71.37, 54.17 71.37, 0 71.37 M0 71.37 C0 49.46, 0 27.55, 0 0 M0 71.37 C0 45.88, 0 20.38, 0 0" stroke="#000000" stroke-width="1" fill="none"></path></g><g transform="translate(238.1668939371221 411.4730306019119) rotate(0 45.4375 18.600669282172674)"><text x="0" y="0" font-family="Cascadia, Segoe UI Emoji" font-size="31.001115470287807px" fill="#000000" text-anchor="start" style="white-space: pre;" direction="ltr" dominant-baseline="text-before-edge">Liste</text></g><g stroke-linecap="round" transform="translate(666.6062804279812 276.8652600190891) rotate(0 222.96533832452678 162.15660969056495)"><path d="M0 0 C110.03 0, 220.06 0, 445.93 0 M0 0 C96.27 0, 192.55 0, 445.93 0 M445.93 0 C445.93 111.19, 445.93 222.39, 445.93 324.31 M445.93 0 C445.93 124.44, 445.93 248.87, 445.93 324.31 M445.93 324.31 C308.62 324.31, 171.32 324.31, 0 324.31 M445.93 324.31 C289.3 324.31, 132.67 324.31, 0 324.31 M0 324.31 C0 242.91, 0 161.51, 0 0 M0 324.31 C0 250.42, 0 176.53, 0 0" stroke="#000000" stroke-width="1" fill="none"></path></g><g stroke-linecap="round"><g transform="translate(666.3785275418811 357.94356486437164) rotate(0 222.82341160784966 0)"><path d="M0 0 C176.66 0, 353.33 0, 445.65 0 M0 0 C100.32 0, 200.64 0, 445.65 0" stroke="#000000" stroke-width="1" fill="none"></path></g></g><mask></mask><g stroke-linecap="round"><g transform="translate(666.6062804279812 476.0358784433701) rotate(0 222.82341160784972 0)"><path d="M0 0 C150.48 0, 300.96 0, 445.65 0 M0 0 C166.57 0, 333.13 0, 445.65 0" stroke="#000000" stroke-width="1" fill="none"></path></g></g><mask></mask><g transform="translate(756.2903049295836 304.49726222496275) rotate(0 145.39999389648438 18.600669282172674)"><text x="0" y="0" font-family="Cascadia, Segoe UI Emoji" font-size="31.0011154702878px" fill="#000000" text-anchor="start" style="white-space: pre;" direction="ltr" dominant-baseline="text-before-edge">Rechnerverwalter</text></g><g transform="translate(697.2487060044551 492.17329371562255) rotate(0 145.25 14.880535425738145)"><text x="0" y="0" font-family="Cascadia, Segoe UI Emoji" font-size="24.80089237623024px" fill="#000000" text-anchor="start" style="white-space: pre;" direction="ltr" dominant-baseline="text-before-edge">+ Rechnerverwalter()</text></g><g stroke-linecap="round"><g transform="translate(665.6062804279812 432.0612194869009) rotate(0 -132.66767217985313 -0.06246785119910214)"><path d="M0 0 C-57.72 -0.03, -115.45 -0.05, -265.34 -0.12 M0 0 C-92.49 -0.04, -184.98 -0.09, -265.34 -0.12" stroke="#000000" stroke-width="1" fill="none"></path></g></g><mask></mask><g stroke-linecap="round"><g transform="translate(399.3707695624488 431.95361172399816) rotate(0 24.999974843708856 -15.541944911878943)"><path d="M0 0 C15.89 -9.88, 31.77 -19.75, 50 -31.08 M0 0 C12.34 -7.67, 24.68 -15.34, 50 -31.08" stroke="#000000" stroke-width="1" fill="none"></path></g></g><mask></mask><g stroke-linecap="round"><g transform="translate(399.3314145121784 431.8708373705281) rotate(0 25.01965236884405 15.5005577351439)"><path d="M0 0 C19.82 12.28, 39.65 24.56, 50.04 31 M0 0 C10.68 6.62, 21.36 13.23, 50.04 31" stroke="#000000" stroke-width="1" fill="none"></path></g></g><mask></mask><g transform="translate(478.4418241607593 403.21829189210996) rotate(0 75 9.599999999999994)"><text x="0" y="0" font-family="Cascadia, Segoe UI Emoji" font-size="16px" fill="#000000" text-anchor="start" style="white-space: pre;" direction="ltr" dominant-baseline="text-before-edge">+ rechnerliste 1</text></g><g stroke-linecap="round" transform="translate(276.81418719465705 10) rotate(0 149.61287609162088 136.49009817497975)"><path d="M0 0 C117.34 0, 234.67 0, 299.23 0 M0 0 C62.39 0, 124.79 0, 299.23 0 M299.23 0 C299.23 109.01, 299.23 218.03, 299.23 272.98 M299.23 0 C299.23 60.67, 299.23 121.33, 299.23 272.98 M299.23 272.98 C206.24 272.98, 113.26 272.98, 0 272.98 M299.23 272.98 C200.37 272.98, 101.52 272.98, 0 272.98 M0 272.98 C0 172.67, 0 72.35, 0 0 M0 272.98 C0 198.58, 0 124.18, 0 0" stroke="#000000" stroke-width="1" fill="none"></path></g><g stroke-linecap="round"><g transform="translate(276.5864343085566 91.07830484528267) rotate(0 149.80037884519885 -0.36150016219133363)"><path d="M0 0 C116.61 -0.28, 233.21 -0.56, 299.6 -0.72 M0 0 C102.82 -0.25, 205.65 -0.5, 299.6 -0.72" stroke="#000000" stroke-width="1" fill="none"></path></g></g><mask></mask><g stroke-linecap="round"><g transform="translate(276.81418719465705 209.1706184242811) rotate(0 149.80037884519885 -0.36150016219133363)"><path d="M0 0 C94.3 -0.23, 188.6 -0.46, 299.6 -0.72 M0 0 C118.43 -0.29, 236.85 -0.57, 299.6 -0.72" stroke="#000000" stroke-width="1" fill="none"></path></g></g><mask></mask><g transform="translate(366.498211696259 37.63200220587373) rotate(0 63.61249923706055 18.600669282172678)"><text x="0" y="0" font-family="Cascadia, Segoe UI Emoji" font-size="31.0011154702878px" fill="#000000" text-anchor="start" style="white-space: pre;" direction="ltr" dominant-baseline="text-before-edge">Rechner</text></g><g transform="translate(307.4566127711307 225.30803369653358) rotate(0 79.88749694824219 14.880535425738145)"><text x="0" y="0" font-family="Cascadia, Segoe UI Emoji" font-size="24.80089237623024px" fill="#000000" text-anchor="start" style="white-space: pre;" direction="ltr" dominant-baseline="text-before-edge">+ Rechner()</text></g><g transform="translate(306.311062111365 105.70012425731485) rotate(0 94.4124984741211 14.880535425738145)"><text x="0" y="0" font-family="Cascadia, Segoe UI Emoji" font-size="24.80089237623024px" fill="#000000" text-anchor="start" style="white-space: pre;" direction="ltr" dominant-baseline="text-before-edge">+ cpu: String</text></g><g transform="translate(304.3935150317668 148.10701648571356) rotate(0 94.4124984741211 14.880535425738145)"><text x="0" y="0" font-family="Cascadia, Segoe UI Emoji" font-size="24.80089237623024px" fill="#000000" text-anchor="start" style="white-space: pre;" direction="ltr" dominant-baseline="text-before-edge">+ ram: String</text></g><g stroke-linecap="round" transform="translate(10 347.41684101488295) rotate(0 148.825939809732 29.38194519848787)"><path d="M0 0 L297.65 0 L297.65 58.76 L0 58.76" stroke="none" stroke-width="0" fill="#ffffff"></path><path d="M0 0 C82.38 0, 164.76 0, 297.65 0 M297.65 0 C297.65 18.91, 297.65 37.83, 297.65 58.76 M297.65 58.76 C231.31 58.76, 164.96 58.76, 0 58.76 M0 58.76 C0 36.8, 0 14.83, 0 0" stroke="#000000" stroke-width="1.5" fill="none" stroke-dasharray="8 9"></path></g><g transform="translate(42.198191627573806 367.3537379697611) rotate(0 117.25 12)"><text x="0" y="0" font-family="Cascadia, Segoe UI Emoji" font-size="20px" fill="#000000" text-anchor="start" style="white-space: pre;" direction="ltr" dominant-baseline="text-before-edge">ContentType: Rechner</text></g></svg>